<?xml version="1.0" standalone="no"?>
<!DOCTYPE svg PUBLIC "-//W3C//DTD SVG 20010904//EN"
 "http://www.w3.org/TR/2001/REC-SVG-20010904/DTD/svg10.dtd">
<svg version="1.0" xmlns="http://www.w3.org/2000/svg"
 width="1536.000000pt" height="1536.000000pt" viewBox="0 0 1536.000000 1536.000000"
 preserveAspectRatio="xMidYMid meet">

<g transform="translate(0.000000,1536.000000) scale(0.100000,-0.100000)"
fill="#000000" stroke="none">
<path d="M0 7680 l0 -7680 7680 0 7680 0 0 7680 0 7680 -7680 0 -7680 0 0
-7680z m6054 6312 c-13 -20 -25 -20 -38 1 -7 10 -5 21 4 32 12 15 15 15 29 0
12 -12 13 -19 5 -33z m3889 -436 c9 -23 -19 -41 -38 -26 -12 10 -13 16 -4 26
15 18 35 18 42 0z m3200 -251 c0 0 -10 -16 -22 -35 -20 -34 -21 -34 -27 -12
-4 13 -21 29 -38 37 -27 12 -28 13 -8 14 14 1 29 12 40 30 l16 29 20 -31 c10
-18 19 -32 19 -32z m-10513 3 c11 -12 20 -30 20 -40 0 -21 -34 -58 -53 -58
-27 0 -57 31 -57 60 0 18 8 34 22 44 30 21 43 20 68 -6z m9216 -136 c49 -27
140 -75 202 -107 61 -33 112 -62 112 -65 0 -6 -117 -84 -335 -224 -49 -32
-121 -78 -160 -102 -66 -43 -68 -44 -35 -12 19 19 43 37 53 41 23 9 22 27 -3
27 -11 0 -20 -4 -20 -10 0 -18 -22 -10 -27 9 -4 17 -9 18 -31 10 -21 -8 -29
-7 -38 6 -12 16 -38 16 -63 1 -9 -6 -12 -5 -7 2 3 6 2 13 -4 17 -6 4 -7 13 -1
23 9 19 4 42 -10 42 -5 0 -9 -9 -9 -20 0 -11 -5 -19 -11 -17 -5 1 -39 -29 -75
-68 l-66 -70 44 60 c23 33 45 62 48 65 8 7 207 275 270 363 30 42 60 76 66 76
6 1 51 -21 100 -47z m-2546 23 c17 -20 5 -62 -21 -70 -36 -12 -73 41 -49 70
16 19 54 19 70 0z m-4365 -152 c18 -27 69 -52 112 -54 27 -2 27 -2 3 -6 -87
-15 -129 -48 -137 -112 -7 -54 -19 -52 -28 5 -7 51 -31 81 -72 90 -16 3 -34 8
-41 10 -23 7 -3 22 39 29 45 8 79 49 79 96 0 15 3 42 7 60 7 31 8 28 15 -29 4
-35 14 -75 23 -89z m6685 -323 c0 -5 -4 -10 -10 -10 -5 0 -10 5 -10 10 0 6 5
10 10 10 6 0 10 -4 10 -10z m1798 -198 c3 -16 -2 -22 -17 -22 -26 0 -36 17
-20 36 16 19 33 13 37 -14z m-5337 -62 c514 -40 992 -162 1492 -382 208 -91
387 -187 387 -208 0 -5 -10 -12 -22 -15 -13 -4 -39 -19 -58 -34 -19 -14 -73
-42 -120 -60 -47 -19 -91 -39 -98 -44 -7 -5 -27 -18 -45 -27 -19 -11 -31 -24
-29 -34 2 -9 -4 -16 -13 -16 -8 0 -15 -4 -15 -9 0 -6 16 -3 36 5 50 21 114 62
114 74 0 5 7 7 15 4 8 -4 15 -1 15 6 0 6 4 8 10 5 8 -5 105 41 135 65 31 24
159 28 1023 29 538 1 934 6 964 11 69 14 245 13 253 -1 14 -21 7 -77 -12 -96
-10 -10 -41 -77 -67 -148 -27 -72 -62 -159 -78 -195 -37 -80 -191 -459 -225
-555 -14 -38 -29 -74 -33 -80 -16 -21 -71 -185 -65 -195 3 -5 2 -10 -4 -10
-12 0 -39 -51 -70 -126 -10 -27 -32 -83 -49 -124 -16 -41 -64 -155 -106 -254
-47 -110 -74 -186 -71 -197 4 -11 2 -19 -4 -19 -11 0 -80 -138 -131 -265 -18
-44 -38 -93 -45 -110 -15 -35 -46 -112 -69 -170 -8 -22 -33 -82 -56 -134 -23
-52 -39 -100 -36 -108 3 -8 2 -11 -3 -8 -5 3 -13 -5 -17 -17 -3 -13 -22 -57
-41 -98 -19 -41 -46 -104 -60 -140 -31 -81 -59 -149 -90 -219 -13 -30 -21 -61
-18 -69 3 -8 1 -30 -6 -49 -25 -76 0 -48 40 45 24 56 50 103 58 106 8 4 302 6
653 6 600 0 639 -1 644 -17 7 -22 46 -338 46 -370 l0 -23 -737 -1 c-406 0
-751 -2 -767 -2 -26 -2 -31 -8 -49 -60 -10 -32 -17 -60 -16 -61 16 -14 747
-19 1272 -9 l307 6 2 -114 c1 -63 1 -142 1 -176 0 -35 3 -63 6 -63 251 -8 319
-13 406 -31 55 -12 107 -25 115 -30 14 -8 -467 -17 -618 -12 -71 3 -139 19
-157 37 -10 10 4 15 69 24 45 7 99 12 119 12 41 0 44 5 21 38 -8 12 -10 22 -5
22 6 0 11 5 11 11 0 6 -9 8 -22 3 -13 -4 -28 -7 -35 -7 -6 0 -9 -5 -7 -12 3
-6 -4 -20 -16 -30 -16 -15 -26 -16 -52 -8 -27 7 -33 14 -31 35 1 25 1 25 -64
23 -42 -2 -61 0 -52 6 11 7 11 9 -3 9 -9 0 -20 -4 -23 -10 -3 -5 -23 -9 -43
-9 -23 1 -29 3 -14 6 12 2 22 8 22 13 0 4 18 11 39 15 31 5 39 11 38 26 -1 10
-5 19 -10 19 -5 0 -7 -7 -3 -15 4 -11 -1 -15 -18 -15 -14 0 -31 -3 -40 -6 -9
-3 -16 -1 -16 5 0 6 7 11 16 11 8 0 13 4 10 9 -3 4 -17 7 -31 6 -18 -2 -25 2
-25 13 0 12 -11 5 -35 -21 -20 -21 -35 -32 -35 -24 0 8 8 18 17 21 15 6 15 8
1 23 -18 17 -78 28 -78 13 0 -5 4 -11 10 -15 5 -3 7 -12 4 -20 -4 -8 -10 -13
-15 -10 -4 3 -6 12 -2 20 4 12 -3 15 -33 14 l-39 -1 28 -12 c15 -7 25 -15 21
-19 -4 -3 -15 -2 -25 4 -15 7 -17 6 -13 -5 3 -8 13 -17 22 -19 10 -3 5 -5 -10
-6 -22 -1 -28 4 -28 19 0 11 -6 20 -14 20 -7 0 -19 7 -26 15 -7 8 -17 12 -23
8 -6 -4 -1 -10 11 -14 12 -5 22 -13 22 -20 0 -6 -7 -9 -15 -5 -8 3 -15 0 -15
-5 0 -7 11 -9 25 -7 14 3 25 1 25 -3 0 -5 -16 -9 -35 -9 -19 0 -35 -4 -35 -10
0 -5 7 -7 15 -4 8 4 15 2 15 -4 0 -13 -49 -22 -56 -11 -3 5 0 9 5 9 6 0 11 5
11 10 0 6 -7 10 -15 10 -8 0 -15 -6 -15 -14 0 -11 -19 -13 -92 -12 -101 2
-131 -1 -122 -15 6 -11 -10 -12 -20 -2 -4 4 -25 8 -46 9 -31 2 -44 -3 -55 -19
-13 -18 -15 -19 -15 -4 0 21 -33 23 -49 3 -18 -21 -61 -26 -68 -8 -5 12 -8 11
-14 -6 -7 -19 -16 -22 -68 -22 -33 0 -63 5 -66 10 -3 6 -15 10 -26 10 -24 0
-25 17 -1 23 9 2 -10 2 -43 -1 -33 -3 -62 -9 -63 -14 -2 -5 -9 -5 -15 0 -23
17 -57 20 -71 6 -17 -16 -46 -19 -46 -3 0 5 6 7 13 3 9 -5 9 -4 0 6 -13 14
-48 6 -38 -9 3 -5 1 -12 -5 -16 -18 -11 -11 -35 10 -35 40 0 19 -20 -22 -21
-87 -3 -108 -9 -108 -33 0 -8 -8 -37 -17 -66 -14 -44 -15 -53 -2 -61 9 -7 471
-8 1286 -3 l1272 7 44 -26 c96 -56 133 -53 -674 -61 -408 -4 -744 -5 -746 -2
-3 3 -5 17 -5 31 0 16 -6 25 -17 25 -66 2 -560 2 -756 0 -218 -2 -241 -4 -264
-21 l-24 -19 34 0 c25 0 30 3 19 10 -18 11 -8 23 13 14 23 -8 9 -34 -18 -34
-13 0 -31 -3 -41 -7 -16 -6 -16 -7 2 -14 16 -6 15 -8 -8 -8 -18 -1 -28 -6 -28
-16 0 -8 -5 -15 -11 -15 -5 0 -7 -4 -4 -10 3 -5 0 -10 -8 -10 -16 0 -18 -31
-2 -42 6 -4 -2 -8 -17 -8 -18 0 -28 -5 -28 -15 0 -8 -6 -15 -12 -15 -9 0 -8
-4 2 -10 9 -6 10 -10 3 -10 -6 0 -11 -9 -10 -20 1 -14 9 -20 27 -20 22 -1 23
-2 7 -11 -9 -5 -21 -8 -26 -5 -12 8 -71 -14 -71 -25 0 -11 3 -11 34 1 15 5 26
6 26 0 0 -5 18 -8 40 -8 23 0 44 -2 47 -6 4 -3 -34 -6 -84 -6 -142 0 -183 -8
-195 -39 -5 -14 -21 -50 -34 -79 -33 -71 -31 -82 10 -82 18 0 55 -3 82 -7 l49
-8 -45 -5 c-25 -3 -44 -9 -43 -15 1 -5 -6 -18 -14 -27 -9 -10 -12 -18 -8 -18
5 0 0 -7 -11 -16 -10 -8 -13 -13 -6 -9 6 3 12 1 12 -4 0 -6 -4 -11 -10 -11 -5
0 -10 -7 -10 -15 0 -8 -6 -15 -12 -15 -9 0 -8 -3 2 -10 13 -8 12 -11 -3 -22
-11 -8 -19 -27 -19 -45 -1 -18 -7 -34 -15 -37 -9 -4 -11 -2 -7 7 10 15 -28
-13 -39 -30 -4 -7 -14 -10 -22 -7 -8 4 -15 2 -15 -4 0 -10 30 -23 63 -27 43
-6 25 -15 -29 -15 -99 0 -97 1 -142 -123 -39 -110 -39 -112 -18 -118 20 -6 24
-31 5 -37 -13 -5 -11 -42 2 -42 8 0 8 -4 2 -12 -14 -18 -14 -58 0 -58 6 0 1
-9 -11 -21 -20 -18 -21 -22 -7 -35 19 -19 19 -28 1 -21 -15 6 -30 -19 -20 -34
3 -5 -3 -9 -13 -9 -15 0 -16 -2 -3 -10 12 -8 12 -10 -3 -16 -10 -4 -16 -13
-13 -20 4 -11 -7 -14 -48 -14 -31 0 -58 -5 -63 -12 -6 -7 -25 -51 -43 -98 -17
-47 -39 -98 -47 -114 -13 -28 -13 -31 9 -48 13 -10 19 -18 14 -18 -5 0 -2 -8
5 -17 10 -11 10 -14 1 -9 -13 8 -13 -19 1 -41 5 -8 4 -13 -2 -13 -6 0 -11 -7
-11 -15 0 -8 -4 -15 -10 -15 -5 0 -7 -7 -4 -15 4 -11 0 -15 -16 -15 -16 0 -20
-4 -16 -15 4 -11 -2 -15 -24 -15 -33 0 -38 -6 -62 -75 -25 -72 -23 -85 10 -85
15 0 454 -2 976 -4 l949 -5 246 -243 c285 -282 391 -391 385 -397 -2 -2 -25
13 -51 34 -36 27 -29 18 26 -36 45 -44 76 -68 79 -60 3 8 60 -43 137 -120 80
-79 131 -138 128 -146 -4 -9 0 -11 13 -6 14 5 16 3 11 -11 -4 -9 -3 -15 2 -12
5 3 11 -3 14 -14 8 -31 -7 -24 -72 30 -59 49 -79 79 -45 66 14 -6 15 -4 4 9
-11 13 -15 13 -21 3 -6 -9 -26 6 -73 56 l-64 68 -66 5 c-36 3 -63 9 -61 13 3
5 14 6 25 3 11 -3 20 -1 20 5 0 6 10 12 22 14 17 2 -1 23 -102 118 l-123 115
-420 -2 c-231 -1 -422 -4 -425 -7 -8 -8 62 -106 120 -169 l54 -57 205 -2 c326
-2 353 -3 367 -12 7 -4 20 -5 30 -2 9 3 24 1 32 -5 12 -8 12 -10 -5 -8 -11 1
-22 0 -25 -1 -7 -4 -175 -8 -387 -9 -124 -1 -183 -5 -183 -12 0 -6 26 -43 58
-82 86 -107 110 -142 89 -134 -10 4 -17 2 -17 -5 0 -18 -38 21 -121 128 l-79
101 -163 6 c-131 5 -352 4 -754 -3 -13 0 -23 -3 -23 -8 0 -4 25 -54 55 -112
30 -57 52 -106 50 -108 -3 -3 3 -11 13 -18 11 -8 14 -16 7 -23 -16 -16 -30 -1
-64 67 -17 34 -46 86 -65 115 -18 28 -35 60 -39 70 -6 16 -38 17 -476 17 -258
0 -472 -4 -475 -8 -6 -11 63 -244 78 -259 8 -8 126 -13 431 -17 231 -3 430 -5
443 -6 13 0 20 -5 17 -10 -4 -6 -164 -10 -441 -10 l-434 0 0 -26 c0 -14 13
-58 28 -97 16 -40 37 -99 47 -132 20 -67 36 -85 76 -85 15 0 31 -5 34 -10 4
-7 -11 -9 -46 -6 -48 5 -51 4 -36 -12 9 -9 20 -29 26 -45 16 -41 -10 -35 -33
7 -10 19 -28 37 -40 40 -29 7 -945 5 -1026 -3 l-64 -6 4 -55 c12 -163 -7 -190
-30 -43 -14 92 -16 97 -43 104 -39 10 -296 14 -729 12 l-366 -3 -7 -42 c-18
-119 -30 -129 -26 -22 l2 66 -565 -4 c-523 -3 -565 -4 -560 -20 4 -12 0 -15
-15 -11 -12 3 -18 9 -16 14 8 11 -31 30 -48 23 -8 -3 -18 -1 -21 5 -6 9 24 24
40 19 22 -6 53 15 59 40 3 15 26 83 51 151 24 68 42 127 38 130 -3 3 -63 6
-132 6 -427 0 -792 6 -792 13 0 14 7 14 405 18 209 2 417 6 463 10 78 6 84 7
93 32 22 58 -5 198 -45 231 -8 7 -159 11 -426 11 -411 1 -414 1 -422 -20 -9
-23 -91 -161 -120 -200 -10 -14 -19 -37 -20 -53 -1 -15 -10 -29 -18 -32 -9 -3
-26 -23 -37 -46 -17 -33 -22 -37 -27 -22 -4 10 -2 19 3 21 6 2 11 12 11 23 0
19 -20 24 -79 19 -14 -1 -22 3 -19 10 2 7 28 14 58 16 30 3 59 9 64 14 6 6 15
5 24 -3 13 -10 14 -8 8 16 -5 22 0 42 25 85 72 127 91 164 86 168 -6 6 -717
11 -845 6 l-92 -3 -82 -102 c-78 -98 -105 -126 -120 -127 -18 -1 6 45 71 131
39 52 71 96 71 99 0 3 -206 5 -458 5 l-459 0 -34 -30 c-49 -44 -232 -234 -243
-252 -5 -10 -4 -18 5 -24 10 -6 7 -9 -11 -9 -14 0 -37 -8 -50 -17 -35 -25 -93
-53 -98 -49 -2 3 6 9 17 16 12 6 20 17 19 24 -4 18 1026 1056 1082 1091 l45
28 810 2 c446 2 831 6 857 10 45 7 47 9 42 34 -4 14 -14 37 -22 51 -9 14 -15
29 -14 33 1 4 -8 22 -22 40 -13 18 -27 41 -30 52 -10 30 -38 61 -74 79 -18 9
-32 20 -32 25 0 16 -29 20 -43 7 -11 -12 -15 -11 -25 5 -11 16 -9 19 10 20 52
3 93 10 100 17 5 5 0 31 -11 58 -11 27 -30 78 -43 113 -21 57 -27 66 -56 73
-29 8 -33 12 -29 38 3 19 0 30 -9 34 -8 3 -14 17 -14 31 0 14 -4 25 -10 25 -5
0 -10 11 -10 25 0 13 -7 28 -16 33 -9 5 -15 12 -15 15 3 25 -4 34 -39 50 -22
9 -40 19 -40 23 0 3 6 2 13 -2 8 -5 8 -2 -2 9 -7 9 -20 17 -28 17 -8 0 -12 3
-10 8 3 4 -17 7 -44 7 -64 0 -99 13 -44 16 22 1 45 3 50 4 6 2 34 3 63 4 58 1
62 8 37 59 -9 17 -22 57 -31 89 -17 68 -30 80 -93 88 -65 9 -70 12 -35 20 28
6 31 11 32 46 1 22 -3 39 -9 39 -5 0 -7 4 -4 10 3 6 -3 10 -14 10 -27 0 -90
56 -97 86 -4 16 -14 24 -28 25 -21 0 -21 0 2 9 12 5 22 11 22 12 0 2 -20 4
-45 4 -81 3 -96 6 -105 24 -5 10 -6 20 -3 24 3 3 2 6 -3 7 -5 0 -18 2 -29 5
-11 2 -45 4 -76 5 -31 1 -62 5 -70 10 -8 5 64 9 179 9 169 0 192 2 192 16 0 9
-15 49 -32 90 -37 82 -27 77 -177 88 -75 6 -86 12 -37 21 20 4 36 10 36 14 -1
18 -18 28 -42 25 -19 -2 -28 2 -28 12 0 8 -3 13 -7 13 -19 -3 -33 2 -33 12 0
6 7 9 15 5 9 -3 15 0 15 9 0 9 -10 15 -27 16 l-28 1 25 8 c24 8 11 15 -19 10
-9 -1 -12 4 -7 15 4 13 2 16 -9 11 -8 -3 -15 -1 -15 4 0 18 -2 25 -11 43 -7
12 -6 17 2 17 7 0 9 3 6 6 -4 4 -13 1 -21 -5 -11 -9 -16 -9 -23 1 -4 7 -16 13
-25 14 -87 4 -102 7 -78 13 30 7 38 31 10 31 -11 0 -20 -6 -20 -12 -1 -8 -5
-7 -13 4 -8 10 -26 16 -45 16 -18 -1 -35 2 -39 5 -3 4 9 7 28 7 24 0 30 3 20
9 -8 5 -127 10 -265 11 -138 1 -363 3 -501 5 -137 2 -272 -1 -300 -6 -27 -5
-55 -10 -62 -11 -7 -1 -10 -5 -7 -10 9 -14 11 -139 3 -144 -4 -2 -15 22 -25
53 -9 32 -20 61 -23 65 -4 5 -7 -30 -6 -76 0 -99 -11 -90 -25 21 -6 43 -13 88
-15 100 l-5 21 793 4 c435 1 798 7 805 11 12 8 7 24 -29 87 -5 8 -13 25 -19
38 -9 20 -16 22 -92 23 -46 0 -94 2 -108 3 -14 1 -137 3 -274 4 -137 1 -246 5
-243 8 4 4 32 7 62 7 47 0 55 3 50 16 -5 13 -4 14 6 4 7 -7 22 -13 33 -13 16
0 17 3 8 12 -7 7 -33 11 -58 10 -25 -1 -54 3 -64 8 -13 7 -20 6 -23 -3 -2 -6
-8 -9 -12 -5 -5 5 0 17 10 28 10 11 13 20 7 20 -6 0 -16 -8 -22 -17 -8 -13
-13 -14 -16 -5 -8 17 -24 15 -24 -3 0 -19 -7 -19 -27 0 -13 14 -17 13 -33 -7
-11 -13 -19 -17 -20 -10 0 6 5 12 12 12 9 0 9 3 1 11 -8 8 -16 8 -30 0 -12 -7
-14 -10 -4 -11 8 0 12 -2 10 -5 -3 -2 -22 2 -43 9 -34 12 -43 11 -67 -3 -26
-15 -30 -15 -45 0 -13 13 -24 15 -56 7 -33 -7 -42 -6 -53 9 -12 15 -13 15 -19
-5 -4 -12 -11 -22 -16 -22 -5 0 -16 -3 -26 -7 -13 -5 -16 -3 -11 10 5 14 2 16
-20 11 -17 -5 -24 -3 -19 4 9 15 -14 26 -27 13 -8 -8 -8 -11 2 -11 7 0 9 -5 6
-11 -4 -6 -14 -8 -22 -5 -8 3 -11 1 -8 -4 3 -6 -1 -10 -9 -10 -9 0 -16 6 -16
13 0 7 -9 18 -20 25 -18 11 -25 10 -49 -7 -15 -11 -39 -23 -54 -26 -33 -9 -42
-21 -21 -29 8 -3 12 -2 9 4 -7 12 8 14 19 3 4 -4 25 -8 47 -9 80 -2 48 -12
-40 -13 -50 0 -94 -1 -98 -2 -4 -1 -20 -1 -34 0 -43 2 -65 76 -34 117 11 14
14 49 15 139 l0 120 661 2 c364 1 670 5 681 9 17 5 19 12 14 42 -4 21 -11 48
-17 62 l-9 25 -662 -2 -661 -3 7 53 c3 28 13 117 22 197 9 80 18 147 21 150 5
6 1079 17 1106 11 9 -2 17 -8 17 -13 0 -5 -4 -6 -10 -3 -14 9 -13 6 20 -75 17
-40 30 -77 30 -83 0 -8 75 -168 87 -186 2 -2 5 -2 7 0 9 9 -25 143 -53 207
-15 37 -31 75 -35 86 -3 10 -12 16 -20 13 -9 -4 -12 1 -9 16 5 27 -14 80 -26
73 -5 -3 -11 1 -14 8 -3 8 -1 16 4 18 6 2 -6 20 -26 41 -27 28 -37 33 -41 22
-9 -22 -1012 -23 -1020 -1 -11 28 75 352 163 615 45 136 49 170 16 151 -10 -5
-79 -19 -153 -30 -74 -11 -227 -38 -340 -60 -113 -21 -261 -48 -330 -59 -69
-12 -141 -25 -161 -31 -20 -6 -79 -17 -130 -25 -52 -8 -157 -26 -234 -41 -77
-14 -164 -30 -194 -35 -30 -6 -57 -12 -61 -14 -7 -4 32 -46 465 -485 132 -135
277 -283 320 -330 44 -47 167 -176 275 -288 107 -112 196 -205 198 -208 6 -10
-15 9 -157 149 -141 138 -171 162 -171 137 0 -5 7 -10 15 -10 8 0 15 -5 15
-11 0 -5 -3 -8 -8 -5 -4 2 -18 -12 -31 -31 -15 -24 -18 -34 -9 -30 8 3 21 1
29 -3 22 -14 5 -20 -29 -11 -18 5 -32 7 -32 4 0 -7 179 -183 186 -183 4 0 4 7
0 15 -4 12 -2 13 15 2 16 -10 17 -13 4 -15 -20 -5 -19 -15 5 -37 11 -10 20
-23 20 -28 0 -12 -417 406 -871 873 -174 179 -378 388 -453 465 l-138 140 99
18 c54 10 193 36 308 58 116 22 264 50 330 61 66 10 203 35 305 53 102 19 280
50 395 69 116 20 288 49 383 66 95 16 186 30 202 30 27 0 33 8 99 143 80 162
107 207 120 207 13 0 72 -112 112 -213 18 -45 36 -87 41 -93 4 -6 26 -58 47
-115 36 -94 51 -131 97 -236 8 -18 20 -48 28 -65 8 -18 31 -69 51 -113 21 -44
50 -114 65 -156 15 -41 36 -91 46 -110 10 -19 19 -36 20 -39 1 -3 5 -15 9 -26
4 -15 13 -20 25 -17 16 4 13 16 -27 116 -25 62 -49 117 -54 123 -4 5 -26 59
-48 120 -22 60 -58 152 -81 204 -39 89 -109 254 -184 435 -19 44 -39 98 -46
120 -7 22 -37 96 -67 165 -30 69 -70 163 -88 210 -19 47 -86 213 -150 370 -64
157 -131 326 -149 375 -18 50 -45 112 -59 140 -15 27 -27 60 -27 72 0 24 48
59 170 122 36 19 67 38 68 43 2 4 10 8 18 8 8 0 14 6 14 14 0 17 27 29 32 14
2 -5 130 54 283 133 154 79 305 156 336 172 l57 29 563 -2 c310 -1 663 -3 784
-5 217 -5 239 -3 161 10 -28 5 -35 9 -26 15 8 5 17 7 21 4 4 -2 10 0 14 6 4 7
-56 10 -178 10 -101 0 -187 3 -190 7 -9 8 67 52 257 149 662 337 1535 511
2277 454z m-4611 -155 c-13 -16 -15 -15 -27 1 -10 13 -10 21 -1 31 10 12 14
12 26 -1 13 -13 13 -17 2 -31z m-1780 -175 c0 -26 -15 -33 -30 -15 -10 12 -10
18 0 30 15 18 30 11 30 -15z m11168 -503 c4 -20 -25 -34 -40 -19 -15 15 -1 44
19 40 10 -2 19 -11 21 -21z m-838 -187 c0 -5 -5 -10 -11 -10 -5 0 -7 5 -4 10
3 6 8 10 11 10 2 0 4 -4 4 -10z m-9663 -82 c-3 -11 1 -27 9 -35 16 -17 18 -33
4 -33 -5 0 -10 -9 -10 -20 0 -11 -4 -20 -8 -20 -5 0 -7 -13 -6 -29 3 -46 -12
-58 -20 -15 -9 44 -55 94 -88 94 -20 1 -20 2 8 14 40 18 84 65 84 91 0 18 1
18 16 -3 9 -13 14 -33 11 -44z m10923 -208 c0 -17 -39 -110 -130 -306 -50
-107 -90 -196 -90 -198 0 -3 -15 -37 -34 -78 -18 -40 -48 -109 -67 -153 -18
-44 -63 -138 -100 -210 -37 -71 -70 -141 -74 -155 -4 -14 -33 -81 -65 -150
-171 -367 -344 -749 -402 -883 -62 -146 -97 -209 -110 -201 -6 4 -8 -2 -3 -17
7 -23 6 -23 -8 -4 -15 21 -17 33 -17 99 0 44 -9 64 -20 46 -12 -20 -30 -2 -30
31 0 26 46 137 116 279 35 73 353 784 415 930 27 63 69 156 93 205 162 334
261 554 252 562 -1 2 -114 -17 -250 -42 -136 -25 -401 -72 -589 -105 -188 -33
-357 -62 -374 -66 -41 -8 -42 1 -6 75 14 31 29 67 33 81 5 21 15 26 56 33 27
4 146 26 264 47 118 22 386 69 595 104 209 36 398 69 420 75 54 12 125 13 125
1z m-10306 -518 c8 -14 -5 -52 -19 -52 -6 0 -20 9 -31 21 -16 17 -16 22 -4 29
19 12 47 13 54 2z m8640 -484 c58 -101 211 -412 260 -529 119 -284 286 -859
260 -900 -6 -11 -1224 -12 -1224 -2 0 4 36 93 81 198 268 629 339 797 374 890
61 161 91 235 132 318 24 48 43 92 43 97 0 6 6 10 13 10 8 0 35 -37 61 -82z
m-8527 -35 c-20 -2 -52 -2 -70 0 -17 2 0 4 38 4 39 0 53 -2 32 -4z m-1227 -33
c0 -5 -13 -10 -28 -10 -16 0 -37 -9 -47 -20 -17 -19 -17 -21 -1 -39 10 -10 13
-22 8 -25 -8 -5 -72 73 -72 88 0 3 30 7 68 9 37 2 68 4 70 5 1 1 2 -2 2 -8z
m35 0 c3 -5 -1 -10 -10 -10 -9 0 -13 5 -10 10 3 6 8 10 10 10 2 0 7 -4 10 -10z
m58 3 c-7 -2 -21 -2 -30 0 -10 3 -4 5 12 5 17 0 24 -2 18 -5z m-133 -124 c0
-6 -4 -7 -10 -4 -5 3 -10 11 -10 16 0 6 5 7 10 4 6 -3 10 -11 10 -16z m269
-91 c16 -18 41 -49 57 -68 l28 -35 -36 34 c-21 19 -41 30 -48 26 -7 -4 -14 1
-17 14 -5 18 -21 26 -45 22 -5 0 -8 4 -8 9 0 6 7 10 15 10 8 0 15 5 15 10 0
17 9 11 39 -22z m-89 18 c0 -3 -4 -8 -10 -11 -5 -3 -10 -1 -10 4 0 6 5 11 10
11 6 0 10 -2 10 -4z m-66 -52 c5 -14 4 -15 -9 -4 -17 14 -19 20 -6 20 5 0 12
-7 15 -16z m51 -64 c10 -11 16 -20 13 -20 -3 0 -13 9 -23 20 -10 11 -16 20
-13 20 3 0 13 -9 23 -20z m336 -177 c13 -16 12 -17 -3 -4 -10 7 -18 15 -18 17
0 8 8 3 21 -13z m-86 -121 c-3 -3 -6 -3 -7 -1 -2 2 -16 20 -33 39 l-30 35 37
-34 c21 -19 36 -37 33 -39z m11747 -607 c13 -17 9 -34 -12 -55 -23 -23 -51
-15 -70 20 -9 17 -6 25 15 46 22 22 28 24 43 12 9 -7 20 -17 24 -23z m-541
-542 c13 -40 50 -68 109 -81 35 -8 39 -10 17 -11 -72 -3 -111 -40 -134 -131
l-10 -35 -12 56 c-14 67 -32 86 -98 104 -28 8 -38 14 -25 14 54 2 122 61 122
107 0 12 3 31 7 41 7 15 8 15 11 -7 2 -14 8 -40 13 -57z m-12121 -278 c26 -32
-18 -71 -48 -42 -14 15 -14 18 3 37 22 24 29 25 45 5z m1680 -35 c0 -5 -7 -7
-15 -4 -8 4 -15 8 -15 10 0 2 7 4 15 4 8 0 15 -4 15 -10z m-26 -26 c5 -14 4
-15 -9 -4 -17 14 -19 20 -6 20 5 0 12 -7 15 -16z m53 -10 c-3 -3 -12 -4 -19
-1 -8 3 -5 6 6 6 11 1 17 -2 13 -5z m-10 -29 c9 -25 -4 -29 -17 -6 -7 15 -7
21 0 21 6 0 13 -7 17 -15z m-568 -71 c-14 -14 -17 -14 -29 0 -10 13 -10 19 0
32 12 14 15 14 29 0 14 -15 14 -17 0 -32z m672 -81 l24 -26 -27 19 c-15 10
-28 22 -28 27 0 12 5 8 31 -20z m8574 17 c-4 -6 6 -10 22 -11 23 -1 20 -3 -12
-9 -49 -10 -65 -2 -33 15 30 17 30 17 23 5z m-95 -20 c0 -5 -7 -10 -16 -10 -8
0 -12 5 -9 10 3 6 10 10 16 10 5 0 9 -4 9 -10z m40 0 c0 -5 -4 -10 -10 -10 -5
0 -10 5 -10 10 0 6 5 10 10 10 6 0 10 -4 10 -10z m135 0 c3 -5 1 -10 -4 -10
-6 0 -11 5 -11 10 0 6 2 10 4 10 3 0 8 -4 11 -10z m-549 -47 c-10 -10 -19 5
-10 18 6 11 8 11 12 0 2 -7 1 -15 -2 -18z m-116 -5 c0 -12 -3 -18 -7 -14 -11
10 -12 36 -2 36 5 0 9 -10 9 -22z m-7862 -80 c23 -32 8 -19 -48 39 -50 52 -51
54 -10 18 25 -21 51 -47 58 -57z m291 71 c-22 -14 -33 -10 -19 6 7 8 17 12 22
9 6 -4 5 -10 -3 -15z m7148 15 c-3 -3 -12 -4 -19 -1 -8 3 -5 6 6 6 11 1 17 -2
13 -5z m-6837 -20 c0 -2 -7 -4 -15 -4 -8 0 -15 4 -15 10 0 5 7 7 15 4 8 -4 15
-8 15 -10z m8203 -11 c-7 -2 -19 -2 -25 0 -7 3 -2 5 12 5 14 0 19 -2 13 -5z
m-8367 -15 c4 -7 3 -8 -4 -4 -7 4 -12 2 -12 -5 0 -7 -3 -10 -6 -6 -6 5 3 27
11 27 2 0 7 -5 11 -12z m107 -3 c-3 -9 -8 -14 -10 -11 -3 3 -2 9 2 15 9 16 15
13 8 -4z m-163 -5 c0 -5 -7 -10 -15 -10 -8 0 -15 5 -15 10 0 6 7 10 15 10 8 0
15 -4 15 -10z m100 0 c0 -5 -5 -10 -11 -10 -5 0 -7 5 -4 10 3 6 8 10 11 10 2
0 4 -4 4 -10z m350 0 c0 -5 -4 -10 -10 -10 -5 0 -10 5 -10 10 0 6 5 10 10 10
6 0 10 -4 10 -10z m6550 0 c0 -5 -5 -10 -11 -10 -5 0 -7 5 -4 10 3 6 8 10 11
10 2 0 4 -4 4 -10z m433 -7 c-7 -2 -21 -2 -30 0 -10 3 -4 5 12 5 17 0 24 -2
18 -5z m524 1 c-3 -3 -12 -4 -19 -1 -8 3 -5 6 6 6 11 1 17 -2 13 -5z m-8288
-88 c-3 -3 -11 5 -18 17 -13 21 -12 21 5 5 10 -10 16 -20 13 -22z m-1409 -200
c14 -16 45 -31 84 -40 55 -13 57 -14 23 -15 -44 -1 -96 -21 -116 -44 -7 -9
-16 -40 -20 -69 l-8 -53 -8 52 c-9 59 -31 85 -90 107 -34 12 -37 15 -20 21 96
37 105 48 105 139 0 80 14 78 21 -3 4 -55 10 -76 29 -95z m8784 56 c2 -4 -5
-9 -17 -9 -17 -2 -19 0 -7 7 18 12 18 12 24 2z m1125 -46 c-9 -9 -88 -12 -129
-6 -37 6 -30 8 44 9 49 0 87 -1 85 -3z m58 -2 c-3 -3 -12 -4 -19 -1 -8 3 -5 6
6 6 11 1 17 -2 13 -5z m110 0 c-3 -3 -12 -4 -19 -1 -8 3 -5 6 6 6 11 1 17 -2
13 -5z m70 0 c-3 -3 -12 -4 -19 -1 -8 3 -5 6 6 6 11 1 17 -2 13 -5z m140 -26
c-3 -7 -5 -2 -5 12 0 14 2 19 5 13 2 -7 2 -19 0 -25z m-7502 12 c3 -5 1 -10
-4 -10 -6 0 -11 5 -11 10 0 6 2 10 4 10 3 0 8 -4 11 -10z m-2968 -46 c-3 -3
-12 -4 -19 -1 -8 3 -5 6 6 6 11 1 17 -2 13 -5z m11025 -23 l506 -1 21 -34 c12
-18 21 -36 21 -38 0 -3 -298 -8 -662 -11 -365 -4 -782 -8 -928 -9 -247 -3
-265 -2 -268 15 -2 10 11 32 31 52 l35 35 369 -4 c202 -2 596 -5 875 -5z
m-9339 -141 c3 -11 1 -20 -4 -20 -5 0 -9 9 -9 20 0 11 2 20 4 20 2 0 6 -9 9
-20z m8432 0 c3 -6 -1 -7 -9 -4 -18 7 -21 14 -7 14 6 0 13 -4 16 -10z m86 -4
c21 4 39 2 39 -3 0 -5 -25 -10 -55 -11 -30 -1 -55 2 -55 7 0 12 24 20 28 10 2
-5 21 -6 43 -3z m1422 -61 c39 -6 51 -13 62 -36 8 -15 15 -30 15 -34 0 -3
-472 -5 -1050 -5 -577 0 -1050 3 -1050 8 0 4 8 21 19 37 l18 31 969 3 c533 1
991 0 1017 -4z m667 -40 c0 -19 -27 -26 -40 -9 -18 20 6 50 26 33 8 -6 14 -17
14 -24z m-10540 -119 c0 -2 -7 -9 -15 -16 -12 -10 -15 -10 -15 4 0 9 7 16 15
16 8 0 15 -2 15 -4z m1277 -2 c-3 -3 -12 -4 -19 -1 -8 3 -5 6 6 6 11 1 17 -2
13 -5z m-2053 -269 c328 -330 410 -415 400 -415 -5 0 -22 11 -37 25 -29 27
-33 26 -17 -6 7 -11 7 -19 1 -19 -5 0 -11 4 -13 9 -1 4 -14 12 -28 16 -23 7
-23 7 -7 -10 10 -10 15 -20 12 -23 -3 -3 -60 49 -128 114 -389 382 -407 397
-407 362 0 -7 -31 -83 -68 -168 -102 -230 -88 -208 -128 -196 -19 6 -34 18
-34 26 0 8 20 62 44 120 132 323 159 386 163 393 7 12 24 -3 247 -228z m10133
226 l661 -1 11 -31 c6 -18 11 -35 11 -38 0 -7 63 -6 -1090 -8 -492 -1 -964 -2
-1049 -3 l-153 -1 7 28 c3 15 10 32 15 37 5 5 168 11 362 14 194 2 355 6 356
7 2 2 50 2 105 1 56 -2 400 -4 764 -5z m-9350 -113 c-3 -8 -6 -5 -6 6 -1 11 2
17 5 13 3 -3 4 -12 1 -19z m1633 -3 c0 -14 -4 -25 -9 -25 -6 0 -8 36 -2 48 5
10 11 -2 11 -23z m7310 -148 c25 -2 -45 -4 -155 -5 -110 -1 -195 2 -189 6 11
6 238 6 344 -1z m-1120 -13 c0 -2 -19 -3 -42 -3 -39 1 -41 2 -13 8 28 7 55 4
55 -5z m1238 9 c-10 -2 -28 -2 -40 0 -13 2 -5 4 17 4 22 1 32 -1 23 -4z m1015
0 c-7 -2 -19 -2 -25 0 -7 3 -2 5 12 5 14 0 19 -2 13 -5z m-2356 -155 c-1 -6
20 -12 48 -13 28 -1 52 -3 55 -5 3 -2 32 -4 65 -5 84 -4 85 -4 85 -14 0 -4
-62 -9 -139 -10 l-139 -2 -4 31 c-3 16 -3 32 0 34 7 8 31 -6 29 -16z m1346 5
c-7 -2 -19 -2 -25 0 -7 3 -2 5 12 5 14 0 19 -2 13 -5z m-1053 -37 c0 -3 -4 -8
-10 -11 -5 -3 -10 -1 -10 4 0 6 5 11 10 11 6 0 10 -2 10 -4z m40 -6 c0 -5 -7
-10 -16 -10 -8 0 -12 5 -9 10 3 6 10 10 16 10 5 0 9 -4 9 -10z m51 -3 c-7 -7
-14 -8 -21 -1 -6 6 -2 10 12 11 16 2 18 -1 9 -10z m547 -753 c20 -9 119 -49
220 -90 101 -41 195 -81 210 -89 l27 -15 -38 6 -38 6 6 -33 c3 -18 11 -36 16
-40 6 -3 -1 -9 -15 -11 -14 -3 -30 0 -37 6 -9 8 -10 6 -6 -11 3 -13 1 -26 -4
-29 -5 -3 -7 -10 -4 -15 4 -5 0 -9 -7 -9 -7 0 -21 -7 -31 -14 -15 -12 -17 -18
-7 -38 14 -30 -26 13 -320 345 -45 51 -38 59 28 31z m1500 -780 c15 -5 14 -7
-6 -15 -25 -10 -72 -2 -72 11 0 5 8 10 18 12 17 4 28 3 60 -8z m-11457 -65
c31 -31 8 -89 -37 -89 -48 0 -71 55 -37 92 21 24 48 23 74 -3z m10009 -89 c0
-5 -2 -10 -4 -10 -3 0 -8 5 -11 10 -3 6 -1 10 4 10 6 0 11 -4 11 -10z m-165
-100 c3 -5 2 -10 -4 -10 -5 0 -13 5 -16 10 -3 6 -2 10 4 10 5 0 13 -4 16 -10z
m591 -322 c21 -23 22 -27 5 -13 -16 13 -25 16 -28 8 -5 -14 -55 -2 -60 14 -3
7 8 13 24 16 15 2 28 5 29 6 0 0 13 -14 30 -31z m-7644 4 c10 -10 -66 -12
-397 -12 -259 1 -404 4 -395 10 8 5 22 7 32 4 9 -2 19 0 23 6 10 17 720 9 737
-8z m6442 2 c35 -11 -19 -13 -368 -13 -225 0 -406 3 -402 6 14 14 105 19 410
19 234 1 330 -2 360 -12z m-8154 -4 c0 -5 -20 -10 -45 -10 -25 0 -45 4 -45 8
0 5 20 10 45 10 25 1 45 -2 45 -8z m50 -6 c0 -2 -9 -4 -21 -4 -11 0 -18 4 -14
10 5 8 35 3 35 -6z m1905 6 c3 -5 -1 -10 -10 -10 -9 0 -13 5 -10 10 3 6 8 10
10 10 2 0 7 -4 10 -10z m5235 -1 c0 -5 -9 -9 -20 -9 -11 0 -20 4 -20 8 0 4 9
8 20 9 11 1 20 -2 20 -8z m1118 -1 c-6 -18 -28 -21 -28 -4 0 9 7 16 16 16 9 0
14 -5 12 -12z m-8420 -5 c-10 -2 -26 -2 -35 0 -10 3 -2 5 17 5 19 0 27 -2 18
-5z m455 0 c-23 -2 -64 -2 -90 0 -26 2 -7 3 42 3 50 0 71 -1 48 -3z m8304 1
c-3 -3 -12 -4 -19 -1 -8 3 -5 6 6 6 11 1 17 -2 13 -5z m40 0 c-3 -3 -12 -4
-19 -1 -8 3 -5 6 6 6 11 1 17 -2 13 -5z m96 -1 c-13 -2 -35 -2 -50 0 -16 2 -5
4 22 4 28 0 40 -2 28 -4z m64 1 c-3 -3 -12 -4 -19 -1 -8 3 -5 6 6 6 11 1 17
-2 13 -5z m230 0 c-3 -3 -12 -4 -19 -1 -8 3 -5 6 6 6 11 1 17 -2 13 -5z m176
-1 c-7 -2 -21 -2 -30 0 -10 3 -4 5 12 5 17 0 24 -2 18 -5z m-2030 -43 c3 -11
2 -20 -3 -20 -8 0 -20 24 -20 41 0 17 17 1 23 -21z m2162 -22 l40 -42 -37 30
c-30 24 -55 54 -45 54 2 0 21 -19 42 -42z m-2017 -198 c18 -27 32 -53 32 -59
0 -6 11 -13 25 -17 19 -5 23 -10 16 -21 -5 -11 0 -30 15 -57 13 -22 24 -45 24
-49 0 -14 -63 43 -90 82 -12 17 -26 22 -72 23 -32 0 -58 5 -58 10 0 5 12 9 28
8 81 -6 88 5 47 70 -14 22 -22 40 -19 40 4 0 -1 9 -12 21 -19 21 -18 21 7 9
14 -6 40 -33 57 -60z m-5623 19 c-14 -27 -35 -47 -35 -34 0 4 5 15 10 26 6 10
7 19 2 19 -5 0 -15 -13 -22 -30 -10 -25 -9 -33 9 -58 18 -26 26 -29 62 -26 23
2 49 -1 58 -6 11 -6 -8 -9 -63 -10 -55 0 -84 -4 -96 -15 -14 -12 -19 -12 -44
0 -17 9 -54 14 -99 14 -107 -2 -141 0 -133 8 7 8 58 12 161 14 39 1 77 6 86
10 9 4 29 33 44 62 22 42 34 55 52 55 21 0 22 -2 8 -29z m7831 -11 l29 -33
-32 29 c-31 28 -38 36 -30 36 2 0 16 -15 33 -32z m-9026 -63 c-6 -8 -9 -19 -6
-24 7 -10 -12 -27 -20 -18 -7 7 18 57 29 57 5 0 4 -7 -3 -15z m-1130 -10 c0
-8 -4 -15 -10 -15 -5 0 -7 7 -4 15 4 8 8 15 10 15 2 0 4 -7 4 -15z m1043 -16
c-7 -7 -29 -13 -49 -16 -45 -5 -40 6 8 17 48 11 53 11 41 -1z m-1073 -9 c0 -5
-4 -10 -10 -10 -5 0 -10 5 -10 10 0 6 5 10 10 10 6 0 10 -4 10 -10z m940 -6
c0 -2 -7 -4 -15 -4 -8 0 -15 4 -15 10 0 5 7 7 15 4 8 -4 15 -8 15 -10z m40 6
c0 -5 -4 -10 -10 -10 -5 0 -10 5 -10 10 0 6 5 10 10 10 6 0 10 -4 10 -10z
m2080 0 c0 -5 -4 -10 -10 -10 -5 0 -10 5 -10 10 0 6 5 10 10 10 6 0 10 -4 10
-10z m60 0 c0 -5 -2 -10 -4 -10 -3 0 -8 5 -11 10 -3 6 -1 10 4 10 6 0 11 -4
11 -10z m126 -3 c4 -4 -22 -7 -57 -7 -38 0 -59 4 -51 9 15 9 98 8 108 -2z m51
7 c-3 -3 -12 -4 -19 -1 -8 3 -5 6 6 6 11 1 17 -2 13 -5z m3723 -4 c0 -5 -12
-10 -26 -10 -14 0 -23 4 -19 10 3 6 15 10 26 10 10 0 19 -4 19 -10z m40 0
c-19 -13 -30 -13 -30 0 0 6 10 10 23 10 18 0 19 -2 7 -10z m1070 0 c12 -8 11
-10 -7 -10 -13 0 -23 5 -23 10 0 13 11 13 30 0z m45 0 c3 -5 2 -10 -4 -10 -5
0 -13 5 -16 10 -3 6 -2 10 4 10 5 0 13 -4 16 -10z m105 -1 c0 -12 -67 -12 -74
0 -3 4 12 8 34 8 22 0 40 -4 40 -8z m906 -5 c19 -15 19 -16 -1 -8 -11 4 -28 7
-37 8 -9 0 -14 4 -12 8 8 13 29 9 50 -8z m181 3 c9 -9 -102 -6 -117 3 -6 4 16
6 49 5 34 -1 64 -5 68 -8z m-6839 -4 c-10 -2 -26 -2 -35 0 -10 3 -2 5 17 5 19
0 27 -2 18 -5z m475 0 c-7 -2 -19 -2 -25 0 -7 3 -2 5 12 5 14 0 19 -2 13 -5z
m-1883 -21 c0 -23 -47 -65 -56 -51 -4 6 -1 14 5 18 6 4 10 14 8 22 -2 8 -2 11
0 7 9 -15 32 -8 27 7 -4 8 -1 15 5 15 6 0 11 -8 11 -18z m8133 -72 c5 -8 -4 0
-22 18 -17 18 -31 37 -31 44 0 10 29 -24 53 -62z m-7003 38 c0 -13 -23 -5 -28
10 -2 7 2 10 12 6 9 -3 16 -11 16 -16z m7012 -93 c15 -22 10 -20 -17 10 -20
22 -46 54 -57 70 -15 22 -10 20 17 -10 20 -22 46 -53 57 -70z m-8227 17 l-28
-27 23 33 c12 18 25 31 28 27 3 -3 -7 -18 -23 -33z m1185 15 c0 -7 -10 -25
-21 -42 -12 -16 -19 -23 -16 -14 3 9 1 22 -3 30 -6 9 -3 20 7 31 16 18 33 16
33 -5z m4695 13 c3 -5 1 -10 -4 -10 -6 0 -11 5 -11 10 0 6 2 10 4 10 3 0 8 -4
11 -10z m1175 -30 c0 -5 -2 -10 -4 -10 -3 0 -8 5 -11 10 -3 6 -1 10 4 10 6 0
11 -4 11 -10z m-2661 -1284 c-2 -2 -19 14 -38 37 l-34 42 38 -37 c22 -21 37
-39 34 -42z m-40 10 c8 -10 8 -16 -3 -25 -11 -9 -13 -7 -13 14 0 29 1 30 16
11z m81 -6 c-6 -11 -13 -20 -16 -20 -2 0 0 9 6 20 6 11 13 20 16 20 2 0 0 -9
-6 -20z m-170 -55 c19 -19 32 -35 29 -35 -3 0 -20 16 -39 35 -19 19 -32 35
-29 35 3 0 20 -16 39 -35z"/>
<path d="M11520 12769 c0 -5 5 -7 10 -4 6 3 10 8 10 11 0 2 -4 4 -10 4 -5 0
-10 -5 -10 -11z"/>
<path d="M6180 11829 c0 -5 5 -7 10 -4 6 3 10 8 10 11 0 2 -4 4 -10 4 -5 0
-10 -5 -10 -11z"/>
<path d="M6235 11830 c3 -5 10 -10 16 -10 5 0 9 5 9 10 0 6 -7 10 -16 10 -8 0
-12 -4 -9 -10z"/>
<path d="M6268 11819 c-20 -21 -24 -19 62 -24 17 -1 41 -7 53 -14 24 -13 29
-22 83 -157 19 -49 42 -94 51 -101 8 -6 12 -16 8 -22 -3 -6 1 -11 9 -11 9 0
16 -7 16 -16 0 -9 6 -30 14 -47 15 -34 27 -78 23 -88 -1 -3 3 -12 9 -20 6 -8
11 -27 12 -42 2 -36 68 -223 113 -322 10 -22 28 -71 40 -110 29 -93 59 -165
70 -165 5 0 9 -11 9 -24 0 -14 5 -28 10 -31 6 -3 10 -19 10 -35 0 -16 5 -32
10 -35 6 -3 10 -13 10 -21 0 -8 13 -32 28 -52 16 -20 34 -56 41 -79 6 -24 17
-43 23 -43 5 0 8 -9 5 -20 -3 -12 -1 -18 5 -14 7 5 9 -2 4 -20 -5 -19 -2 -28
10 -33 12 -4 13 -8 3 -14 -10 -6 -9 -13 4 -33 9 -14 17 -33 17 -43 0 -9 10
-27 22 -40 12 -13 16 -23 9 -23 -9 0 -9 -5 -1 -20 6 -11 17 -20 25 -20 8 0 15
-7 15 -15 0 -8 -6 -15 -12 -15 -9 0 -9 -3 1 -9 8 -5 16 -23 17 -39 1 -16 9
-43 18 -60 9 -17 16 -37 16 -45 0 -8 7 -17 15 -21 8 -3 12 -11 9 -19 -3 -8 2
-19 10 -26 7 -6 12 -20 9 -30 -3 -11 4 -28 17 -41 12 -12 19 -24 16 -27 -2 -3
4 -14 15 -26 10 -11 19 -27 19 -34 0 -7 5 -13 11 -13 7 0 8 7 4 18 -4 9 -33
87 -65 172 -61 164 -111 296 -160 420 -16 41 -48 127 -71 190 -23 63 -70 189
-105 280 -57 152 -80 210 -180 465 -47 119 -105 272 -161 425 -58 161 -74 187
-121 199 -62 15 -105 11 -124 -10z"/>
<path d="M11298 11735 c-15 -15 -167 -21 -924 -34 -608 -10 -648 -26 -88 -35
626 -10 633 -19 22 -31 -295 -5 -539 -13 -542 -16 -8 -8 429 -19 804 -20 173
0 333 -4 355 -8 22 -4 -235 -10 -575 -13 -706 -6 -871 -21 -350 -31 179 -4
424 -7 544 -7 132 0 216 -4 210 -9 -5 -5 -249 -11 -556 -13 -371 -2 -551 -7
-558 -14 -10 -10 304 -19 905 -26 l150 -1 -130 -7 c-71 -4 -299 -8 -505 -10
-206 -1 -397 -5 -425 -9 l-50 -7 70 -7 c39 -4 293 -10 565 -14 l495 -8 -265
-6 c-146 -4 -384 -8 -530 -10 -403 -5 -510 -9 -510 -19 0 -5 165 -10 368 -11
202 -1 480 -5 617 -8 l250 -7 -180 -4 c-99 -2 -216 -4 -260 -5 -44 0 -125 -2
-180 -4 l-100 -4 70 -8 c39 -5 304 -7 590 -6 503 2 521 3 565 23 25 11 62 26
84 33 21 7 54 24 74 37 19 14 47 27 61 31 l26 6 -29 12 c-28 12 -26 12 35 19
37 4 81 17 104 30 22 13 92 50 155 82 63 32 135 74 159 93 l44 36 -29 6 c-35
8 -528 11 -536 4z"/>
<path d="M4541 11718 c-140 -6 -181 -11 -210 -26 -20 -11 -142 -73 -271 -139
-129 -67 -255 -133 -280 -147 -25 -14 -55 -30 -67 -36 -26 -11 -29 -23 -9 -39
15 -13 1048 -14 1216 -1 l95 7 -105 3 c-524 14 -524 14 -110 23 212 4 457 10
545 14 229 10 142 21 -175 24 -514 3 -561 13 -100 22 234 4 445 11 470 14 95
14 -7 21 -315 23 -511 3 -543 14 -70 23 542 11 641 20 331 30 -126 4 -360 7
-520 7 -167 0 -286 4 -280 9 5 5 247 11 539 15 291 4 533 10 538 15 10 10
-399 21 -842 22 -187 1 -318 5 -296 9 22 4 318 10 659 13 418 4 622 9 629 16
8 8 -68 11 -261 12 -150 1 -276 3 -282 4 -5 1 -123 3 -262 4 -138 0 -249 3
-247 5 12 12 120 16 597 22 287 4 522 10 522 14 0 10 -223 20 -485 21 -241 1
-672 13 -740 21 -22 2 -118 1 -214 -4z"/>
<path d="M11985 11659 c-4 -6 -13 -8 -21 -5 -28 11 -72 -45 -129 -163 -33 -66
-61 -119 -62 -117 -2 2 19 53 47 113 27 61 50 113 50 117 0 3 -7 6 -15 6 -8 0
-15 -4 -15 -10 0 -11 -71 -79 -84 -80 -4 0 -6 7 -2 15 17 46 -68 -41 -98 -100
-14 -27 -25 -46 -26 -42 0 4 7 22 16 38 8 17 14 39 12 50 -3 18 -6 17 -38 -9
-19 -16 -48 -57 -64 -91 -16 -33 -31 -59 -33 -57 -3 2 7 27 21 55 44 86 33 93
-38 25 -33 -31 -46 -39 -41 -25 9 28 -16 28 -33 1 -7 -12 -16 -18 -21 -15 -12
7 -30 -17 -41 -52 -7 -25 -8 -25 -9 -5 -1 34 -30 40 -56 10 -11 -13 -26 -23
-32 -21 -28 10 -138 -75 -147 -112 -4 -14 -11 -25 -16 -25 -6 0 -10 -7 -10
-15 0 -26 -32 -83 -44 -79 -14 5 -88 -139 -123 -241 -14 -38 -33 -88 -43 -110
-10 -22 -28 -65 -40 -95 -12 -30 -35 -85 -50 -121 -16 -36 -30 -74 -32 -85 -1
-10 -5 -21 -9 -24 -8 -8 -31 -59 -142 -325 -111 -265 -206 -489 -264 -620 -19
-44 -79 -188 -133 -320 -119 -292 -225 -546 -250 -600 -11 -22 -48 -117 -84
-210 -94 -249 -138 -359 -186 -465 -94 -210 -119 -269 -153 -360 -19 -52 -39
-108 -43 -125 -4 -16 -12 -36 -17 -43 -6 -8 -25 -51 -43 -95 -17 -45 -53 -131
-79 -192 -26 -60 -69 -164 -96 -230 -48 -116 -63 -151 -115 -260 -13 -27 -53
-122 -88 -210 -113 -279 -137 -337 -187 -457 -27 -64 -49 -119 -49 -122 0 -9
-138 -334 -175 -411 -18 -38 -40 -90 -48 -115 -9 -25 -31 -79 -50 -120 -46
-98 -227 -526 -227 -536 0 -5 -20 -56 -45 -115 -52 -123 -68 -199 -41 -199 9
0 25 9 36 20 11 11 26 20 34 20 8 0 30 15 49 33 19 18 40 31 46 29 14 -5 71
36 71 50 0 16 92 230 96 225 3 -2 -14 -52 -37 -111 -23 -58 -40 -109 -37 -112
16 -16 57 34 92 111 21 47 40 84 42 82 2 -1 -8 -34 -22 -71 -13 -38 -22 -71
-20 -74 16 -15 61 38 93 109 20 44 38 78 39 76 2 -2 -6 -31 -18 -65 -13 -33
-20 -63 -17 -67 6 -5 102 42 137 67 10 7 30 43 46 81 16 37 33 70 38 73 5 3 2
-11 -7 -33 -39 -90 -42 -103 -25 -103 17 0 78 60 83 83 8 32 69 178 74 174 2
-2 -10 -42 -27 -88 -16 -46 -30 -90 -30 -98 0 -23 38 9 60 49 47 88 154 332
220 500 39 102 98 239 131 305 32 66 59 127 59 135 0 9 4 20 9 25 5 6 14 28
21 50 13 42 56 129 76 155 22 28 94 200 133 317 41 123 117 316 156 393 12 25
48 110 80 190 32 80 77 183 100 230 23 47 50 109 61 139 10 29 24 56 31 58 7
3 20 28 29 56 9 29 20 57 24 62 4 6 10 25 13 43 4 18 17 56 31 85 13 28 35 77
49 107 14 30 47 102 74 160 28 58 56 121 63 140 8 19 21 45 31 57 9 13 20 39
24 59 3 20 17 61 30 90 13 29 36 93 50 141 15 48 57 151 95 228 37 77 77 162
89 188 12 26 25 46 30 43 10 -6 34 54 161 389 23 61 50 128 59 150 10 22 24
56 31 75 8 19 16 37 19 40 4 3 11 16 18 30 6 14 37 78 67 143 31 64 56 122 56
127 0 5 11 35 25 66 14 31 22 60 19 65 -3 5 0 9 6 9 7 0 10 6 7 14 -3 8 0 16
7 19 15 6 38 76 29 90 -3 6 -1 7 5 3 7 -4 12 -3 12 3 0 6 13 39 29 73 15 35
31 84 35 111 4 26 11 47 17 47 5 0 9 7 9 15 0 8 4 15 9 15 13 0 117 217 131
275 7 28 19 57 25 65 11 13 27 68 39 130 1 8 5 22 9 30 3 8 11 28 17 44 6 16
13 26 17 23 6 -7 46 63 58 103 4 14 13 39 21 55 70 156 124 303 124 343 0 22
5 32 16 32 8 0 12 5 9 10 -4 6 2 18 13 28 11 9 32 53 47 97 14 44 37 100 50
125 33 63 67 184 40 139z m-245 -207 c0 -5 -7 -17 -15 -28 -14 -18 -14 -17 -4
9 12 27 19 34 19 19z m-129 -119 c-12 -20 -14 -14 -5 12 4 9 9 14 11 11 3 -2
0 -13 -6 -23z m139 -34 c-12 -30 -26 -58 -31 -64 -5 -5 2 20 16 55 14 35 25
66 25 69 0 2 2 2 5 -1 3 -3 -4 -30 -15 -59z m-305 6 c-9 -20 -18 -35 -21 -32
-3 2 3 21 12 41 23 47 29 40 9 -9z m235 7 c0 -5 -7 -17 -15 -28 -14 -18 -14
-17 -4 9 12 27 19 34 19 19z m-84 -28 c-4 -9 -9 -15 -11 -12 -3 3 -3 13 1 22
4 9 9 15 11 12 3 -3 3 -13 -1 -22z m-275 -87 c-10 -9 -11 -8 -5 6 3 10 9 15
12 12 3 -3 0 -11 -7 -18z m230 -4 c-12 -20 -14 -14 -5 12 4 9 9 14 11 11 3 -2
0 -13 -6 -23z m139 -24 c-11 -24 -17 -33 -14 -19 11 42 24 73 29 68 3 -3 -4
-25 -15 -49z m-249 -56 c-12 -20 -14 -14 -5 12 4 9 9 14 11 11 3 -2 0 -13 -6
-23z m102 -118 c-3 -9 -8 -14 -10 -11 -3 3 -2 9 2 15 9 16 15 13 8 -4z m-252
-52 c-12 -20 -14 -14 -5 12 4 9 9 14 11 11 3 -2 0 -13 -6 -23z m290 -40 c-12
-20 -14 -14 -5 12 4 9 9 14 11 11 3 -2 0 -13 -6 -23z m-20 -50 c-12 -20 -14
-14 -5 12 4 9 9 14 11 11 3 -2 0 -13 -6 -23z m-2762 -6222 c-12 -28 -24 -49
-27 -46 -3 3 5 28 18 55 30 65 37 58 9 -9z m-345 -120 c-9 -23 -18 -40 -20
-38 -2 2 4 22 13 45 9 23 18 40 20 38 2 -2 -4 -22 -13 -45z m-33 -78 c-12 -20
-14 -14 -5 12 4 9 9 14 11 11 3 -2 0 -13 -6 -23z"/>
<path d="M9478 11617 c-27 -12 -48 -26 -48 -30 0 -4 9 -3 20 3 11 6 25 8 31 5
5 -4 15 -2 22 3 7 6 17 10 22 11 6 0 11 7 13 15 4 20 -3 19 -60 -7z"/>
<path d="M6280 11576 c0 -35 150 -466 181 -520 6 -10 35 -89 64 -175 30 -86
77 -217 105 -291 28 -74 56 -148 62 -165 6 -16 26 -72 45 -124 63 -171 27
-104 -57 106 -171 432 -190 480 -190 487 0 4 -16 44 -36 89 -20 45 -46 109
-59 142 -13 33 -51 132 -84 220 -57 147 -91 209 -107 193 -3 -4 4 -40 16 -80
29 -98 165 -483 189 -533 10 -22 47 -116 81 -210 183 -503 259 -719 256 -722
-3 -3 -59 139 -156 397 -32 85 -95 245 -140 355 -83 204 -165 416 -219 561
-33 90 -80 184 -93 184 -16 0 -8 -63 18 -138 63 -182 369 -1010 439 -1187 24
-60 46 -123 50 -140 7 -34 -76 163 -170 405 -35 91 -91 233 -123 315 -33 83
-87 222 -121 310 -127 331 -147 376 -168 383 -25 7 -13 -56 33 -185 25 -70 61
-172 80 -226 19 -55 45 -124 58 -155 13 -32 35 -91 49 -132 14 -41 46 -131 72
-200 25 -69 64 -172 85 -230 21 -58 51 -134 65 -168 15 -35 25 -66 23 -68 -6
-5 -107 242 -214 521 -35 94 -82 213 -104 265 -22 52 -54 133 -70 180 -17 47
-46 121 -64 165 -19 44 -41 101 -50 126 -12 32 -24 49 -38 53 -12 3 -24 3 -27
0 -6 -5 28 -108 82 -254 20 -52 62 -167 93 -255 31 -88 81 -221 109 -295 29
-74 65 -173 80 -220 15 -47 45 -129 67 -184 21 -54 37 -100 35 -102 -5 -5 -65
146 -409 1031 -63 163 -70 176 -84 164 -7 -6 -18 -8 -24 -4 -15 9 -13 -2 21
-95 17 -47 45 -128 64 -180 18 -52 71 -196 118 -320 151 -396 247 -658 247
-672 -1 -16 -231 559 -427 1067 -70 181 -101 241 -117 225 -8 -8 -7 -13 4 -20
12 -8 13 -12 2 -19 -16 -10 36 -176 137 -435 66 -172 185 -490 242 -646 21
-58 63 -170 94 -249 30 -79 54 -146 52 -148 -4 -4 -89 197 -150 357 -229 594
-433 1104 -439 1094 -16 -25 -1 -100 49 -242 30 -86 70 -200 88 -252 18 -52
61 -169 95 -260 34 -91 70 -194 80 -230 10 -36 23 -78 29 -95 5 -16 19 -56 29
-87 13 -37 16 -60 9 -67 -12 -12 -1 -31 18 -31 15 0 35 -30 35 -51 0 -8 -4 -8
-15 1 -12 10 -15 10 -15 -4 0 -9 8 -16 20 -16 22 0 27 -16 8 -23 -10 -3 -10
-9 -2 -28 7 -13 19 -45 28 -70 9 -25 24 -54 34 -65 9 -10 17 -32 17 -47 -1
-15 5 -33 12 -39 7 -6 13 -21 13 -33 0 -35 10 -55 29 -55 12 0 13 -2 3 -8 -14
-9 -6 -42 10 -42 6 0 8 -6 5 -14 -3 -7 2 -24 10 -36 9 -13 17 -32 19 -44 5
-43 59 -191 108 -301 13 -27 35 -84 51 -125 15 -41 41 -102 56 -135 16 -33 36
-86 44 -117 8 -32 23 -77 34 -100 11 -24 25 -62 30 -84 6 -23 18 -47 26 -54 8
-7 15 -20 15 -29 0 -9 4 -21 8 -27 5 -5 17 -31 27 -59 10 -27 23 -57 30 -65 7
-8 43 -91 80 -185 37 -93 73 -183 80 -199 7 -16 28 -76 47 -133 18 -56 38
-103 45 -103 12 0 33 -59 33 -91 0 -9 9 -28 20 -42 11 -14 29 -51 39 -84 55
-170 127 -326 146 -320 5 2 17 26 26 53 8 27 30 81 49 119 35 74 66 156 130
345 22 63 44 124 50 135 5 11 25 65 45 120 20 55 45 123 55 150 32 85 32 93
12 138 -11 23 -29 69 -40 102 -41 121 -131 364 -195 527 -36 92 -71 187 -77
210 -13 51 -120 328 -132 345 -5 6 -42 98 -83 205 -40 106 -94 243 -120 303
-26 61 -58 137 -71 170 -14 33 -29 69 -34 80 -51 112 -118 269 -196 460 -51
127 -112 275 -134 330 -23 55 -52 127 -65 160 -18 49 -103 258 -193 478 -17
42 -32 48 -32 13z m180 -1572 c11 -31 19 -59 16 -61 -2 -2 -11 15 -19 39 -8
24 -18 51 -22 61 -4 9 -5 17 -2 17 3 0 15 -25 27 -56z m110 -29 c0 -5 -5 -3
-10 5 -5 8 -10 20 -10 25 0 6 5 3 10 -5 5 -8 10 -19 10 -25z m-196 -265 c5
-17 4 -20 -2 -10 -5 8 -13 26 -16 40 -5 17 -4 20 2 10 5 -8 13 -26 16 -40z"/>
<path d="M9126 11455 c-82 -33 -90 -46 -16 -25 l35 10 -25 -20 c-33 -26 -16
-25 42 3 49 23 65 43 26 32 -18 -5 -19 -4 -8 4 30 21 2 19 -54 -4z"/>
<path d="M9728 11333 c29 -2 74 -2 100 0 26 2 2 3 -53 3 -55 0 -76 -1 -47 -3z"/>
<path d="M9888 11333 c6 -2 18 -2 25 0 6 3 1 5 -13 5 -14 0 -19 -2 -12 -5z"/>
<path d="M8913 11303 c-15 -6 -17 -33 -3 -33 5 0 14 9 20 20 11 20 6 23 -17
13z"/>
<path d="M4236 11248 c-30 -17 -98 -20 -108 -6 -6 10 -8 10 -8 1 0 -7 -10 -13
-22 -13 -19 0 -20 2 -8 10 12 7 8 10 -15 10 -23 0 -27 -3 -15 -10 15 -10 -138
-8 -396 5 -93 5 -113 4 -124 -9 -15 -19 -10 -33 115 -341 78 -194 106 -263
202 -490 30 -71 74 -179 98 -240 24 -60 71 -173 105 -250 34 -77 86 -203 117
-280 30 -77 63 -151 73 -165 10 -14 26 -49 35 -77 9 -28 23 -54 30 -57 20 -7
41 -53 49 -104 3 -24 17 -64 30 -90 13 -26 37 -76 52 -112 16 -36 36 -76 46
-90 9 -14 36 -72 58 -130 23 -58 45 -109 50 -115 11 -14 30 -85 22 -82 -13 4
-13 -8 -3 -36 6 -16 15 -25 21 -22 5 3 12 -7 16 -22 4 -15 31 -75 60 -133 29
-58 67 -141 85 -185 65 -166 71 -180 80 -189 5 -6 9 -17 9 -26 0 -9 9 -34 20
-55 12 -22 31 -69 44 -105 13 -36 40 -101 59 -145 19 -44 71 -169 116 -277 44
-109 94 -224 110 -256 16 -31 34 -78 41 -102 6 -25 17 -54 24 -65 7 -11 19
-38 26 -60 13 -40 18 -53 83 -200 68 -154 96 -221 121 -289 15 -38 31 -74 36
-81 5 -6 22 -44 38 -85 17 -41 58 -138 92 -215 34 -77 81 -189 105 -250 23
-60 68 -168 99 -240 61 -138 132 -317 148 -375 6 -19 31 -78 55 -130 25 -52
54 -120 64 -149 11 -30 25 -64 32 -75 8 -12 27 -57 42 -101 16 -44 51 -124 77
-178 26 -54 48 -100 48 -103 0 -3 20 -48 45 -101 25 -53 48 -106 51 -117 3
-12 12 -30 20 -41 15 -20 28 -20 749 -23 403 -1 755 1 782 5 46 8 49 11 75 63
28 58 35 58 18 1 -6 -23 -6 -31 0 -25 6 6 40 89 76 185 115 308 136 362 187
469 27 58 103 233 169 390 66 157 167 398 225 535 57 138 124 302 148 365 23
63 83 212 132 330 50 118 93 233 97 255 9 54 20 82 77 202 27 55 49 105 49
111 0 11 96 255 117 297 8 17 36 89 63 160 26 72 58 153 70 180 12 28 49 118
82 200 80 200 150 348 158 335 4 -6 11 -1 18 12 20 42 134 311 182 433 53 132
124 300 163 385 22 48 80 186 228 540 22 52 51 120 64 150 13 30 50 116 81
190 31 74 86 203 121 285 35 83 77 182 93 220 41 102 99 239 175 415 85 194
124 306 118 331 -3 10 -15 21 -27 24 -16 4 -197 12 -316 14 -8 0 -382 -2 -830
-5 -554 -4 -817 -9 -821 -16 -4 -6 -11 -8 -17 -4 -16 9 -27 -12 -67 -129 -20
-60 -63 -173 -95 -250 -69 -166 -123 -321 -117 -332 7 -12 -47 -155 -57 -151
-4 1 -16 -13 -27 -32 -20 -39 -24 -54 -10 -45 6 3 3 -16 -6 -42 -9 -27 -22
-51 -29 -56 -7 -4 -11 -14 -8 -22 3 -7 -1 -29 -10 -47 -17 -36 -35 -92 -60
-179 -9 -31 -23 -69 -31 -85 -8 -16 -15 -34 -15 -41 0 -7 -15 -45 -34 -85 -19
-40 -51 -113 -71 -163 -21 -49 -48 -111 -61 -137 -13 -26 -24 -55 -24 -65 -1
-32 -76 -208 -88 -206 -7 2 -12 -2 -12 -7 0 -6 5 -10 11 -10 8 0 8 -4 -1 -15
-6 -7 -20 -48 -30 -89 -11 -42 -26 -86 -33 -98 -8 -13 -26 -57 -41 -98 -14
-41 -55 -147 -91 -235 -63 -153 -80 -199 -127 -345 -12 -36 -38 -101 -59 -145
-20 -44 -60 -142 -88 -217 -57 -154 -162 -420 -193 -488 -11 -25 -38 -90 -58
-145 -97 -255 -176 -422 -201 -424 -4 -1 -15 31 -24 70 -10 39 -24 73 -31 76
-8 3 -14 12 -14 20 0 8 -9 27 -19 42 -11 15 -23 40 -27 56 -4 16 -13 40 -20
54 -8 14 -14 37 -15 51 -1 43 -35 135 -50 135 -9 0 -18 21 -26 59 -6 32 -16
61 -21 65 -5 3 -18 31 -28 61 -11 30 -23 58 -27 61 -4 3 -7 10 -6 15 4 15 -21
94 -46 145 -12 26 -26 60 -29 76 -4 15 -14 35 -21 43 -8 9 -19 37 -25 64 -11
50 -36 107 -52 117 -5 3 -11 23 -13 45 -2 21 -36 122 -75 224 -71 186 -137
362 -146 390 -4 12 -7 12 -13 1 -7 -10 -10 -8 -16 8 -4 13 -4 25 -1 28 3 4 6
1 6 -5 0 -7 5 -12 10 -12 6 0 3 16 -6 38 -10 20 -34 84 -54 142 -47 132 -103
277 -175 450 -31 74 -63 155 -71 180 -8 25 -32 88 -53 140 -50 125 -190 490
-213 559 -10 30 -22 59 -27 65 -4 6 -21 47 -36 91 -15 44 -36 96 -45 115 -10
19 -41 98 -70 175 -42 112 -156 398 -200 500 -4 11 -10 27 -13 36 -5 15 -52
17 -483 18 -263 1 -481 4 -484 6 -4 2 -68 5 -144 6 -75 1 -139 6 -142 10 -3 5
-14 3 -25 -4 -15 -9 -21 -9 -27 0 -5 8 -12 9 -26 1z m1265 -323 c30 -88 84
-232 119 -320 34 -88 96 -245 135 -350 89 -234 193 -501 325 -835 95 -239 239
-608 401 -1025 39 -99 95 -241 125 -316 30 -74 54 -140 54 -146 0 -11 66 -185
121 -321 17 -41 29 -76 27 -78 -2 -2 -21 38 -42 89 -94 226 -111 261 -134 288
-16 20 -33 29 -53 29 -44 0 -68 33 -121 167 -26 65 -103 262 -173 438 -69 176
-146 370 -172 430 -48 116 -148 370 -264 670 -39 99 -92 234 -119 300 -27 66
-68 170 -91 230 -22 61 -54 146 -71 190 -42 111 -57 158 -79 248 -21 87 -23
100 -11 93 4 -2 14 -1 22 4 11 7 18 1 27 -22 7 -16 10 -34 7 -39 -6 -10 35
-73 43 -66 6 6 -6 47 -51 172 -52 144 -70 173 -73 123 -2 -25 -24 -41 -37 -28
-6 6 -14 6 -21 0 -7 -6 -17 2 -29 25 -21 38 -40 49 -54 32 -11 -12 55 -205
158 -467 27 -69 108 -280 180 -470 184 -482 286 -744 408 -1045 135 -333 229
-572 297 -755 29 -80 92 -239 138 -355 46 -115 110 -277 142 -360 32 -82 78
-199 102 -260 24 -60 58 -147 74 -193 16 -45 57 -151 91 -235 62 -157 136
-349 264 -692 41 -110 80 -213 86 -228 6 -15 15 -26 21 -24 5 1 43 90 83 197
41 107 99 258 129 335 30 77 63 165 74 195 11 30 60 161 109 290 49 129 138
361 196 515 104 273 148 388 259 665 30 74 85 214 122 310 82 213 358 909 425
1075 27 66 87 221 134 345 46 124 130 342 186 485 182 464 238 624 225 645
-13 21 -32 9 -50 -30 -10 -22 -22 -37 -26 -34 -5 3 -6 -2 -3 -10 3 -8 -4 -24
-15 -35 -11 -11 -18 -27 -15 -35 3 -9 -5 -39 -18 -68 -14 -29 -29 -64 -36 -78
-7 -16 -11 -19 -11 -9 -1 9 -8 20 -17 23 -8 3 -13 2 -10 -3 3 -4 -3 -16 -14
-26 -19 -17 -20 -17 -20 2 0 11 6 26 14 33 8 6 12 18 9 26 -3 8 0 14 6 14 6 0
11 14 11 30 0 17 5 30 10 30 6 0 10 10 10 23 0 47 21 98 38 95 9 -2 20 -7 24
-12 9 -14 47 52 41 74 -3 9 -12 17 -21 16 -10 0 -16 5 -15 12 2 6 0 12 -3 12
-18 0 -180 -419 -171 -444 2 -6 10 6 17 27 13 33 40 52 40 27 0 -5 -4 -10 -9
-10 -5 0 -11 -12 -14 -27 -3 -16 -11 -41 -18 -58 -7 -16 -13 -34 -15 -40 -2
-5 -6 -20 -10 -32 -4 -14 -2 -23 4 -23 6 0 14 10 17 23 10 31 85 187 90 187 3
0 -4 -24 -16 -52 -11 -29 -43 -114 -70 -188 -68 -183 -135 -350 -153 -386 -8
-16 -34 -81 -57 -144 -43 -120 -149 -391 -296 -760 -47 -118 -105 -264 -128
-325 -23 -60 -73 -189 -112 -285 -39 -96 -97 -242 -129 -325 -65 -166 -85
-195 -138 -195 -46 0 -53 -11 -122 -191 -107 -278 -136 -350 -174 -432 -22
-45 -40 -77 -40 -71 0 10 148 390 215 549 18 44 49 130 69 190 35 110 176 484
235 625 18 41 43 112 57 157 14 45 29 85 34 88 5 3 14 22 20 43 7 20 73 190
147 377 74 187 156 396 182 465 76 196 276 700 341 860 70 172 185 466 194
498 4 12 13 22 19 23 32 2 1671 -2 1674 -4 1 -2 -19 -48 -46 -103 -62 -125
-204 -457 -328 -763 -52 -130 -103 -249 -113 -266 -10 -16 -21 -41 -25 -55 -4
-14 -22 -59 -40 -100 -53 -118 -191 -447 -223 -530 -16 -41 -69 -167 -117
-280 -155 -363 -198 -465 -341 -822 l-96 -237 -44 6 c-29 3 -44 1 -44 -6 0
-16 -17 -13 -24 5 -7 19 22 103 119 334 43 102 103 248 135 325 51 123 81 193
150 350 10 22 21 51 25 65 17 55 192 460 199 460 3 0 4 -20 3 -44 -1 -24 -5
-42 -9 -40 -4 3 -5 -2 -2 -10 6 -17 24 -12 24 6 0 6 9 18 20 28 22 19 109 197
189 390 62 146 260 598 301 685 15 33 45 103 65 155 21 52 46 113 56 135 38
85 101 231 106 248 7 24 -10 21 -44 -7 -64 -53 -39 -51 -645 -56 l-566 -5 -24
-22 c-14 -13 -31 -23 -39 -24 -8 -1 2 -5 21 -10 19 -4 263 -9 541 -9 278 0
509 -3 513 -7 3 -3 -1 -17 -9 -29 -8 -13 -42 -87 -75 -166 -34 -79 -76 -177
-95 -218 -32 -72 -140 -324 -220 -515 -20 -49 -52 -124 -70 -165 -17 -41 -44
-102 -58 -135 -27 -62 -102 -246 -212 -515 -34 -85 -82 -198 -105 -250 -42
-95 -123 -292 -166 -405 -12 -33 -57 -143 -100 -245 -42 -102 -112 -273 -155
-380 -44 -107 -90 -220 -104 -250 -13 -30 -65 -152 -114 -270 -49 -118 -113
-271 -144 -340 -57 -129 -124 -292 -303 -733 -57 -142 -154 -378 -215 -525
-62 -147 -146 -352 -189 -457 -43 -104 -119 -287 -170 -405 -51 -118 -102
-248 -114 -287 l-21 -73 -575 0 -575 1 -22 47 c-12 26 -31 70 -41 97 -46 120
-114 281 -123 290 -5 5 -9 16 -9 26 0 9 -14 46 -30 82 -35 76 -178 424 -317
767 -131 322 -154 379 -206 500 -25 58 -65 155 -90 215 -25 61 -95 229 -157
375 -62 146 -136 324 -165 395 -29 72 -72 175 -95 230 -23 55 -71 177 -107
270 -36 94 -88 220 -116 280 -46 102 -153 358 -332 795 -121 296 -312 754
-413 990 -88 208 -170 406 -324 785 -34 83 -69 162 -79 177 -36 51 -36 51 189
45 249 -6 877 8 911 20 23 9 23 10 -15 29 -37 18 -70 19 -628 22 -640 3 -603
0 -665 59 -26 25 -51 30 -51 11 0 -15 101 -259 176 -426 13 -29 24 -55 24 -59
0 -3 11 -31 24 -62 13 -31 48 -114 76 -186 29 -71 75 -177 103 -235 52 -109
61 -131 170 -395 54 -131 168 -375 185 -395 2 -3 12 5 22 18 10 12 21 22 24
22 3 0 19 -30 37 -67 36 -78 239 -551 239 -557 0 -3 56 -136 124 -298 124
-295 176 -428 176 -452 0 -11 -6 -11 -37 0 -21 7 -48 13 -60 14 -25 0 -47 42
-132 246 -27 65 -78 189 -114 274 -35 85 -90 214 -122 285 -31 72 -63 146 -70
165 -15 40 -91 222 -160 385 -25 61 -66 160 -90 220 -24 61 -67 164 -95 230
-28 66 -55 131 -60 145 -4 14 -27 68 -50 120 -23 52 -50 118 -60 145 -10 28
-34 88 -55 135 -20 47 -64 153 -96 235 -33 83 -71 175 -83 205 -13 30 -47 111
-76 180 -29 69 -60 135 -67 147 -14 21 -13 22 24 25 21 2 403 3 848 3 l810 0
56 -160z m3609 -65 c0 -5 -2 -10 -4 -10 -3 0 -8 5 -11 10 -3 6 -1 10 4 10 6 0
11 -4 11 -10z m-2240 -3475 c0 -5 -5 -3 -10 5 -5 8 -10 20 -10 25 0 6 5 3 10
-5 5 -8 10 -19 10 -25z m20 -50 c0 -5 -5 -3 -10 5 -5 8 -10 20 -10 25 0 6 5 3
10 -5 5 -8 10 -19 10 -25z m665 -274 c-37 -92 -43 -86 -8 8 14 39 28 69 31 67
2 -3 -8 -37 -23 -75z m-1654 -848 c22 -49 65 -151 96 -228 30 -77 81 -201 113
-275 32 -74 61 -146 65 -159 12 -40 -12 -15 -36 37 -12 26 -25 54 -30 63 -4 9
-22 54 -40 100 -17 46 -40 103 -50 126 -11 24 -19 49 -19 57 0 8 -9 18 -20 21
-11 3 -20 13 -20 21 0 8 -7 14 -15 14 -13 0 -12 -6 5 -39 11 -22 22 -67 24
-102 4 -42 11 -68 25 -83 10 -11 26 -45 35 -75 9 -29 20 -59 24 -65 13 -17 62
-156 56 -156 -4 0 -2 -6 3 -12 6 -7 13 -26 17 -43 4 -16 9 -39 12 -50 8 -36
-57 108 -96 210 -21 55 -50 126 -64 158 -28 59 -159 385 -182 449 l-13 36 32
-10 c18 -6 35 -16 38 -21 4 -5 7 3 7 17 0 14 -4 26 -7 26 -4 0 -7 16 -7 35 0
19 2 35 3 35 2 0 22 -39 44 -87z m2680 -150 c-13 -44 -39 -103 -46 -103 -8 0
2 32 26 88 20 47 32 56 20 15z m46 -39 c-3 -3 -12 -4 -19 -1 -8 3 -5 6 6 6 11
1 17 -2 13 -5z m-27 -64 c-19 -12 -35 3 -26 26 6 17 8 17 24 0 15 -15 15 -18
2 -26z m-89 -71 c-9 -22 -10 -22 -10 -3 -1 11 2 24 6 27 12 12 14 0 4 -24z
m-258 -864 c-3 -9 -8 -14 -10 -11 -3 3 -2 9 2 15 9 16 15 13 8 -4z m-62 -160
c-52 -138 -99 -261 -160 -415 -21 -52 -41 -104 -45 -114 -3 -10 -8 -17 -11
-15 -6 7 32 118 65 187 17 35 30 65 30 68 0 2 15 43 34 92 19 48 50 130 69
182 38 104 59 152 63 147 2 -1 -19 -61 -45 -132z m-1770 -161 c5 -15 8 -29 5
-31 -2 -2 -8 10 -14 26 -13 38 -5 41 9 5z m84 -191 c26 -65 53 -132 61 -150 7
-18 9 -35 5 -38 -5 -3 -16 14 -24 37 -9 24 -33 86 -55 138 -48 116 -57 145
-44 136 5 -3 31 -59 57 -123z"/>
<path d="M4130 10814 c0 -10 9 -37 20 -61 30 -65 53 -118 99 -228 23 -55 50
-118 60 -140 10 -22 24 -56 31 -75 7 -19 41 -100 75 -180 80 -186 192 -452
215 -510 30 -74 112 -265 117 -270 2 -2 8 1 12 9 12 18 21 18 31 1 6 -10 28
-16 72 -18 34 -2 68 -8 74 -13 8 -7 15 -6 19 2 6 8 9 8 14 0 10 -15 78 -24 86
-11 3 6 11 10 17 10 7 0 6 -5 -2 -15 -7 -8 -10 -22 -6 -30 8 -22 25 -19 19 4
-3 14 2 20 21 23 14 3 26 2 26 -3 0 -11 30 -39 41 -39 6 0 7 5 3 12 -5 8 -2 9
12 3 41 -17 64 -18 64 -2 0 14 4 14 35 1 31 -13 34 -12 28 2 -5 13 -2 15 18 9
13 -4 31 -12 39 -19 10 -7 9 -3 -3 10 -9 11 -14 24 -10 27 10 11 23 8 21 -5
-2 -6 6 -14 16 -16 14 -3 17 0 13 12 -4 9 -2 16 3 16 6 0 10 -7 10 -15 0 -8 5
-15 11 -15 5 0 7 5 4 10 -3 6 1 10 10 10 10 0 13 -5 9 -12 -4 -6 0 -16 9 -23
18 -13 67 -8 67 6 0 5 7 9 15 9 8 0 15 7 15 15 0 8 5 15 10 15 6 0 10 -6 8
-14 -3 -15 -1 -16 30 -16 14 0 15 2 2 10 -12 8 -9 10 12 10 14 0 29 6 32 13 5
10 7 10 12 0 9 -19 22 -16 49 13 23 24 26 25 60 13 25 -9 41 -24 50 -44 7 -16
14 -25 14 -19 1 14 -36 120 -94 269 -26 66 -57 149 -70 185 -13 36 -63 166
-110 290 -47 124 -102 270 -122 325 -42 119 -162 433 -174 456 -7 14 -71 16
-573 18 -534 2 -566 2 -566 -15z m1665 -1444 c3 -5 1 -10 -4 -10 -6 0 -11 5
-11 10 0 6 2 10 4 10 3 0 8 -4 11 -10z m-500 -60 c3 -5 2 -10 -4 -10 -5 0 -13
5 -16 10 -3 6 -2 10 4 10 5 0 13 -4 16 -10z m221 -9 c-8 -7 -19 -10 -25 -7
-19 12 -12 24 14 22 20 -1 22 -3 11 -15z"/>
<path d="M9382 10823 c-101 -4 -103 -4 -113 -31 -6 -15 -20 -47 -30 -72 -10
-25 -35 -88 -54 -140 -20 -52 -51 -133 -70 -180 -18 -47 -72 -186 -119 -310
-48 -124 -95 -247 -107 -275 -11 -27 -33 -88 -49 -135 -16 -47 -43 -121 -60
-165 -56 -144 -100 -270 -100 -285 0 -8 13 6 28 31 33 55 59 83 67 70 3 -6 -1
-13 -9 -18 -11 -6 -12 -13 -6 -23 7 -10 10 -11 10 -2 0 6 6 12 14 12 9 0 12 7
9 21 -5 16 -2 20 8 17 8 -3 13 -11 12 -17 -2 -6 7 -11 20 -11 18 0 19 2 7 10
-13 8 -12 10 3 10 9 0 17 -7 17 -15 0 -8 -9 -15 -21 -15 -11 0 -17 -4 -14 -10
3 -5 -2 -10 -12 -11 -16 0 -16 -1 2 -9 28 -11 205 -12 205 -1 0 5 -8 12 -17
14 -14 4 -12 5 5 6 13 1 22 -5 22 -14 0 -12 13 -15 56 -15 34 0 53 4 49 10 -3
6 -2 10 4 10 5 0 13 -5 17 -11 4 -7 51 -9 148 -5 77 3 142 5 144 6 1 0 2 5 2
11 0 5 -4 7 -10 4 -5 -3 -10 -1 -10 4 0 6 11 12 25 13 14 0 30 1 37 2 6 1 13
-4 15 -11 3 -7 -3 -9 -16 -6 -13 3 -21 1 -21 -7 0 -6 10 -10 23 -9 12 2 27 0
34 -4 7 -4 20 2 32 14 20 22 21 22 40 5 11 -10 25 -15 31 -11 6 4 18 1 27 -7
14 -11 15 -10 8 11 -5 16 -4 21 4 17 6 -4 13 4 17 19 6 25 12 27 74 30 21 1
28 11 52 75 15 41 34 89 42 105 7 17 24 55 36 85 13 30 31 73 40 95 41 93 50
117 50 134 0 10 7 24 15 31 8 7 15 19 15 27 0 8 6 27 14 41 8 15 27 56 42 92
26 63 42 101 85 198 11 26 27 61 34 77 6 17 21 50 32 75 11 25 42 95 68 155
26 61 54 119 61 130 8 11 14 26 14 35 0 8 11 37 25 64 13 27 22 53 19 58 -5 7
-787 8 -1022 1z m-557 -1415 c-1 -13 -9 -24 -18 -26 -21 -4 -22 12 -1 32 20
21 21 20 19 -6z m710 -98 c3 -5 1 -10 -4 -10 -6 0 -11 5 -11 10 0 6 2 10 4 10
3 0 8 -4 11 -10z m105 0 c0 -5 -8 -10 -17 -10 -15 0 -16 2 -3 10 19 12 20 12
20 0z m-363 -6 c-3 -3 -12 -4 -19 -1 -8 3 -5 6 6 6 11 1 17 -2 13 -5z m123 -4
c0 -5 -2 -10 -4 -10 -3 0 -8 5 -11 10 -3 6 -1 10 4 10 6 0 11 -4 11 -10z
m-513 -16 c-3 -3 -12 -4 -19 -1 -8 3 -5 6 6 6 11 1 17 -2 13 -5z"/>
<path d="M9076 10703 c-6 -14 -5 -15 5 -6 7 7 10 15 7 18 -3 3 -9 -2 -12 -12z"/>
<path d="M9060 10672 c0 -7 -6 -12 -13 -12 -15 0 -21 -46 -7 -55 9 -6 33 65
25 74 -3 2 -5 -1 -5 -7z"/>
<path d="M5534 10574 c3 -9 6 -22 6 -30 0 -8 5 -14 10 -14 6 0 10 14 10 30 0
21 -5 30 -16 30 -11 0 -14 -5 -10 -16z"/>
<path d="M8918 10464 c-5 -4 -8 -16 -8 -28 0 -14 3 -17 11 -9 6 6 9 19 7 28
-1 9 -6 13 -10 9z"/>
<path d="M8800 10184 c0 -8 5 -12 10 -9 6 3 10 10 10 16 0 5 -4 9 -10 9 -5 0
-10 -7 -10 -16z"/>
<path d="M9700 9320 c0 -13 11 -13 30 0 12 8 11 10 -7 10 -13 0 -23 -4 -23
-10z"/>
<path d="M5016 9291 c-8 -12 22 -36 32 -26 4 4 1 10 -6 12 -6 3 -10 9 -6 14 3
5 1 9 -5 9 -5 0 -12 -4 -15 -9z"/>
<path d="M5113 9293 c-7 -3 -13 -12 -13 -21 0 -15 2 -15 17 1 18 18 16 27 -4
20z"/>
<path d="M9736 9284 c-4 -10 -1 -14 6 -12 15 5 23 28 10 28 -5 0 -13 -7 -16
-16z"/>
<path d="M5300 7984 c0 -5 38 -97 135 -329 37 -88 89 -216 116 -285 27 -69 56
-138 63 -155 15 -31 52 -118 111 -260 19 -44 57 -132 85 -195 28 -63 90 -207
137 -320 137 -328 140 -336 151 -356 6 -10 19 -39 30 -64 24 -57 49 -111 61
-130 6 -8 12 -27 16 -42 l5 -28 500 0 c482 0 500 1 500 19 0 10 -7 25 -17 32
-19 16 7 15 -487 17 -209 1 -377 4 -374 7 2 3 192 5 421 6 229 0 419 4 422 8
2 5 -5 25 -15 47 -11 21 -20 45 -20 54 0 8 -7 28 -15 44 -8 15 -15 36 -15 45
0 9 -9 30 -20 46 -11 17 -20 40 -20 52 0 12 -4 25 -10 28 -5 3 -10 16 -10 29
0 12 -7 31 -15 42 -8 10 -15 25 -15 32 0 8 -6 28 -14 45 -8 18 -28 71 -45 119
-17 48 -35 95 -40 105 -11 20 -45 107 -96 247 -69 188 -201 526 -321 826 -135
336 -124 319 -174 280 -14 -11 -34 -20 -45 -20 -11 0 -52 -13 -90 -29 -98 -39
-263 -74 -353 -73 -177 2 -299 36 -489 134 -29 15 -53 25 -53 22z"/>
<path d="M9180 7956 c-23 -28 -107 -76 -171 -97 -80 -27 -259 -36 -382 -20
-47 6 -126 25 -174 41 -48 15 -128 36 -178 45 -49 9 -95 21 -102 27 -8 6 -16
2 -27 -14 -19 -30 -144 -335 -189 -463 -44 -124 -177 -476 -256 -673 -60 -152
-124 -320 -155 -407 -10 -27 -29 -79 -42 -115 -48 -126 -64 -174 -64 -190 0
-9 -5 -21 -11 -27 -15 -15 -59 -123 -59 -146 0 -10 -10 -31 -21 -46 -12 -16
-18 -34 -15 -40 5 -8 150 -11 486 -11 429 0 480 2 495 16 9 9 15 26 13 38 -1
12 9 32 24 47 18 18 25 34 21 47 -3 13 3 28 16 41 12 12 21 32 21 45 0 13 6
29 14 35 8 7 18 25 21 41 4 16 17 51 29 77 37 76 101 227 151 358 26 66 53
130 61 142 8 12 14 27 14 32 0 6 16 45 36 88 47 103 58 127 87 198 13 33 56
134 95 225 39 91 94 221 122 290 29 69 68 159 86 201 39 89 84 205 84 219 0
15 -16 12 -30 -4z m-1197 -1973 c-7 -2 -19 -2 -25 0 -7 3 -2 5 12 5 14 0 19
-2 13 -5z m42 -84 c154 -1 253 -5 220 -8 -33 -3 -238 -4 -455 -1 -293 3 -355
6 -240 10 85 3 164 4 175 3 11 -1 146 -2 300 -4z"/>
<path d="M6259 5790 c-25 -6 -32 -19 -21 -38 7 -9 117 -12 508 -12 295 -1 500
3 502 8 5 15 -28 42 -51 43 -144 3 -921 3 -938 -1z"/>
<path d="M7355 5792 c-28 -3 -55 -25 -55 -44 0 -5 222 -7 493 -6 l492 3 3 23
3 22 -213 0 c-117 0 -321 1 -453 2 -132 2 -253 2 -270 0z"/>
<path d="M6270 5691 c0 -5 3 -16 6 -25 6 -14 101 -16 979 -16 874 0 975 2 989
16 9 8 14 20 11 25 -8 12 -1985 12 -1985 0z"/>
<path d="M6312 5588 l3 -23 760 0 c418 0 843 2 945 5 166 4 185 7 188 23 3 16
-47 17 -948 17 l-951 0 3 -22z"/>
<path d="M6353 5505 c-3 -9 -3 -18 0 -21 9 -9 1811 -4 1820 5 29 29 -16 31
-909 31 -806 0 -905 -2 -911 -15z"/>
<path d="M6380 5423 c1 -33 7 -33 885 -31 819 3 870 4 873 21 3 16 -44 17
-877 17 -485 0 -881 -3 -881 -7z"/>
<path d="M6420 5330 c0 -28 77 -30 863 -28 764 3 812 4 815 21 3 16 -42 17
-837 17 -568 0 -841 -3 -841 -10z"/>
<path d="M6470 5234 c0 -12 55 -14 368 -15 852 -1 1214 1 1223 7 36 22 -59 25
-797 24 -682 -1 -794 -3 -794 -16z"/>
<path d="M6583 5152 c-108 -4 -89 -22 25 -23 351 -2 1398 3 1405 8 5 3 3 9 -4
14 -12 8 -1243 8 -1426 1z"/>
<path d="M6540 5050 c0 -7 245 -10 715 -10 470 0 715 3 715 10 0 7 -245 10
-715 10 -470 0 -715 -3 -715 -10z"/>
<path d="M6582 4965 c7 -7 1339 -7 1346 0 3 3 -300 5 -673 5 -373 0 -676 -2
-673 -5z"/>
<path d="M8871 11218 c-32 -60 -87 -187 -126 -293 -18 -49 -53 -135 -77 -190
-45 -101 -79 -192 -77 -209 0 -5 -3 -12 -8 -15 -9 -6 -29 -55 -80 -196 -13
-38 -31 -83 -38 -100 -26 -59 -98 -244 -177 -455 -44 -118 -90 -233 -101 -255
-11 -22 -32 -74 -47 -115 -15 -41 -50 -131 -78 -200 -28 -69 -54 -138 -57
-155 -7 -29 -7 -29 8 -10 9 11 17 26 17 33 0 8 9 27 20 42 11 16 19 32 18 37
-1 4 6 27 17 50 13 30 21 39 28 30 5 -8 6 -4 2 9 -3 14 0 24 8 27 7 3 21 27
31 54 49 135 81 215 108 266 5 10 6 27 3 38 -4 10 -2 19 4 19 18 0 86 172 73
185 -4 4 1 11 11 16 21 12 23 41 2 33 -8 -4 -15 -1 -15 5 0 6 9 11 20 11 14 0
22 11 31 43 7 23 18 49 25 57 12 14 89 206 159 395 33 90 55 143 80 200 22 49
136 334 166 418 16 42 35 89 43 105 7 15 23 57 34 95 24 79 9 92 -27 25z
m-500 -1315 c-8 -15 -10 -15 -11 -2 0 17 10 32 18 25 2 -3 -1 -13 -7 -23z"/>
<path d="M7260 9631 c0 -6 4 -13 10 -16 6 -3 7 1 4 9 -7 18 -14 21 -14 7z"/>
<path d="M3630 9616 c0 -7 -10 -17 -22 -21 -20 -6 -21 -8 -5 -12 10 -3 25 -2
33 1 16 6 20 46 4 46 -5 0 -10 -6 -10 -14z"/>
<path d="M4413 8795 c0 -8 4 -15 9 -15 4 0 8 7 8 15 0 8 -4 15 -8 15 -5 0 -9
-7 -9 -15z"/>
<path d="M7693 8703 c-36 -4 -41 -7 -33 -21 5 -9 11 -29 14 -43 7 -32 36 -40
112 -32 54 6 67 17 78 69 l7 30 -68 0 c-37 1 -87 -1 -110 -3z"/>
<path d="M4580 8669 c0 -8 7 -24 16 -35 14 -18 15 -18 8 6 -8 31 -24 50 -24
29z"/>
<path d="M7749 8533 c-13 -16 -12 -17 4 -4 9 7 17 15 17 17 0 8 -8 3 -21 -13z"/>
<path d="M10732 8355 c-20 -44 -13 -62 8 -22 22 41 24 47 12 47 -5 0 -14 -11
-20 -25z"/>
<path d="M10700 8268 c0 -19 2 -20 10 -8 13 19 13 30 0 30 -5 0 -10 -10 -10
-22z"/>
<path d="M2875 8199 c-10 -15 3 -25 16 -12 7 7 7 13 1 17 -6 3 -14 1 -17 -5z"/>
<path d="M2855 8140 c-7 -12 2 -30 16 -30 5 0 9 9 9 20 0 21 -15 27 -25 10z"/>
<path d="M11576 8033 c-3 -3 -1 -12 5 -20 14 -16 -3 -17 -19 -1 -8 8 -12 8
-12 1 0 -15 -39 -10 -50 7 -5 8 -10 10 -10 3 0 -6 -9 -9 -21 -6 -16 4 -20 2
-17 -8 4 -11 37 -15 156 -17 132 -3 152 -1 152 12 0 19 -13 20 -40 4 -17 -11
-22 -10 -30 1 -7 12 -11 12 -23 2 -11 -9 -17 -9 -22 -1 -4 6 -13 9 -21 6 -7
-3 -20 1 -28 9 -7 8 -16 11 -20 8z"/>
<path d="M11956 8022 c-3 -5 -27 -8 -53 -7 -27 1 -58 -2 -70 -6 -14 -5 -23 -5
-23 1 0 5 -7 7 -15 4 -26 -10 -17 -20 18 -19 17 0 36 -1 41 -3 15 -8 318 -7
329 0 24 15 -7 22 -103 24 -54 1 -103 5 -109 8 -5 4 -12 2 -15 -2z"/>
<path d="M3350 8000 c0 -5 17 -10 38 -9 30 0 33 2 17 9 -28 12 -55 12 -55 0z"/>
<path d="M3735 8000 c3 -5 8 -10 11 -10 2 0 4 5 4 10 0 6 -5 10 -11 10 -5 0
-7 -4 -4 -10z"/>
<path d="M3790 8000 c8 -5 20 -10 25 -10 6 0 3 5 -5 10 -8 5 -19 10 -25 10 -5
0 -3 -5 5 -10z"/>
<path d="M3850 8006 c0 -2 7 -6 15 -10 8 -3 15 -1 15 4 0 6 -7 10 -15 10 -8 0
-15 -2 -15 -4z"/>
<path d="M3928 8003 c7 -3 16 -2 19 1 4 3 -2 6 -13 5 -11 0 -14 -3 -6 -6z"/>
<path d="M10575 7991 c3 -11 1 -22 -5 -26 -5 -3 -10 -13 -10 -21 0 -23 17 -8
28 25 8 24 7 31 -4 35 -11 4 -14 1 -9 -13z"/>
<path d="M3638 7993 c6 -2 18 -2 25 0 6 3 1 5 -13 5 -14 0 -19 -2 -12 -5z"/>
<path d="M3688 7993 c6 -2 18 -2 25 0 6 3 1 5 -13 5 -14 0 -19 -2 -12 -5z"/>
<path d="M11298 7993 c7 -3 16 -2 19 1 4 3 -2 6 -13 5 -11 0 -14 -3 -6 -6z"/>
<path d="M11348 7993 c7 -3 16 -2 19 1 4 3 -2 6 -13 5 -11 0 -14 -3 -6 -6z"/>
<path d="M12138 7925 c-7 -7 3 -65 12 -65 10 0 11 58 1 65 -5 2 -10 2 -13 0z"/>
<path d="M10546 7905 c-3 -8 -1 -15 4 -15 6 0 10 7 10 15 0 8 -2 15 -4 15 -2
0 -6 -7 -10 -15z"/>
<path d="M11948 7883 c7 -3 16 -2 19 1 4 3 -2 6 -13 5 -11 0 -14 -3 -6 -6z"/>
<path d="M12000 7880 c-8 -5 -12 -12 -9 -15 4 -3 12 1 19 10 14 17 11 19 -10
5z"/>
<path d="M11506 7863 c-6 -14 -5 -15 5 -6 7 7 10 15 7 18 -3 3 -9 -2 -12 -12z"/>
<path d="M11416 7863 c-10 -10 -7 -19 13 -41 21 -25 36 -29 28 -8 -4 10 -1 13
9 9 7 -3 14 0 14 6 0 6 -6 11 -14 11 -8 0 -21 7 -29 15 -8 8 -17 11 -21 8z"/>
<path d="M11303 7833 c14 -4 16 -8 6 -19 -9 -12 -6 -14 20 -14 17 0 31 5 31
10 0 6 -7 10 -16 10 -8 0 -12 5 -9 10 4 6 -5 10 -22 9 -18 -1 -21 -3 -10 -6z"/>
<path d="M11380 7820 c-10 -18 -8 -20 17 -19 15 0 22 3 15 6 -6 2 -10 9 -7 13
3 5 1 11 -4 15 -6 3 -15 -4 -21 -15z"/>
<path d="M11977 7820 c-3 -13 0 -20 8 -20 21 0 27 16 11 29 -11 9 -15 7 -19
-9z"/>
<path d="M12165 7821 c-3 -5 -1 -12 5 -16 5 -3 10 1 10 9 0 18 -6 21 -15 7z"/>
<path d="M3912 7804 c-11 -12 -9 -14 7 -14 23 0 36 16 18 23 -6 2 -18 -2 -25
-9z"/>
<path d="M11940 7810 c0 -5 5 -10 10 -10 6 0 10 5 10 10 0 6 -4 10 -10 10 -5
0 -10 -4 -10 -10z"/>
<path d="M12141 7804 c0 -11 3 -14 6 -6 3 7 2 16 -1 19 -3 4 -6 -2 -5 -13z"/>
<path d="M11138 7803 c6 -2 18 -2 25 0 6 3 1 5 -13 5 -14 0 -19 -2 -12 -5z"/>
<path d="M3835 7780 c-28 -19 -29 -20 -7 -20 13 0 20 4 17 10 -3 6 3 10 14 10
11 0 23 5 26 10 10 17 -18 11 -50 -10z"/>
<path d="M3770 7780 c0 -5 4 -10 9 -10 6 0 13 5 16 10 3 6 -1 10 -9 10 -9 0
-16 -4 -16 -10z"/>
<path d="M10583 7783 c9 -2 23 -2 30 0 6 3 -1 5 -18 5 -16 0 -22 -2 -12 -5z"/>
<path d="M11060 7780 c0 -5 5 -10 11 -10 5 0 7 5 4 10 -3 6 -8 10 -11 10 -2 0
-4 -4 -4 -10z"/>
<path d="M3988 7773 c7 -3 16 -2 19 1 4 3 -2 6 -13 5 -11 0 -14 -3 -6 -6z"/>
<path d="M4100 7769 c0 -5 5 -7 10 -4 6 3 10 8 10 11 0 2 -4 4 -10 4 -5 0 -10
-5 -10 -11z"/>
<path d="M11035 7760 c3 -5 8 -10 11 -10 2 0 4 5 4 10 0 6 -5 10 -11 10 -5 0
-7 -4 -4 -10z"/>
<path d="M10878 7733 c7 -3 16 -2 19 1 4 3 -2 6 -13 5 -11 0 -14 -3 -6 -6z"/>
<path d="M4355 7710 c-3 -5 3 -10 15 -10 12 0 18 5 15 10 -3 6 -10 10 -15 10
-5 0 -12 -4 -15 -10z"/>
<path d="M4400 7716 c0 -2 7 -7 16 -10 8 -3 12 -2 9 4 -6 10 -25 14 -25 6z"/>
<path d="M4590 7480 c0 -5 5 -10 10 -10 6 0 10 5 10 10 0 6 -4 10 -10 10 -5 0
-10 -4 -10 -10z"/>
<path d="M4660 7436 c0 -9 5 -16 10 -16 6 0 10 4 10 9 0 6 -4 13 -10 16 -5 3
-10 -1 -10 -9z"/>
<path d="M10485 7400 c-3 -5 -1 -10 4 -10 6 0 11 5 11 10 0 6 -2 10 -4 10 -3
0 -8 -4 -11 -10z"/>
<path d="M4777 7361 c-3 -12 -1 -21 3 -21 15 0 23 21 12 32 -6 6 -11 2 -15
-11z"/>
<path d="M4398 5370 l-357 -5 -80 -79 c-45 -43 -81 -80 -81 -82 0 -2 179 -4
399 -4 l398 0 61 75 c34 41 63 80 64 86 4 15 8 15 -404 9z"/>
<path d="M4873 5363 c-28 -25 -113 -139 -113 -152 0 -8 121 -11 400 -11 l400
0 35 72 c19 40 35 79 35 85 0 10 -77 13 -354 13 -195 0 -361 2 -369 5 -7 3
-23 -2 -34 -12z"/>
<path d="M5668 5328 c-12 -24 -30 -60 -40 -80 -16 -36 -16 -38 0 -39 31 -3
247 3 250 6 2 2 -7 32 -21 66 -29 72 -51 88 -119 89 -46 0 -48 -2 -70 -42z"/>
<path d="M9511 5357 c-16 -8 -29 -28 -38 -62 -8 -27 -20 -56 -25 -63 -6 -7 -8
-16 -4 -20 9 -8 450 -16 471 -9 10 5 4 24 -28 84 l-42 78 -155 2 c-109 2 -162
-1 -179 -10z"/>
<path d="M9907 5364 c-4 -4 12 -42 34 -85 l41 -79 405 0 c273 0 404 3 401 10
-2 6 -28 44 -58 85 l-55 75 -381 0 c-209 0 -384 -3 -387 -6z"/>
<path d="M10749 5353 c5 -10 34 -48 64 -84 l56 -67 73 -5 c114 -8 705 -3 714
6 5 4 -30 44 -76 87 l-85 79 -378 1 c-357 0 -377 -1 -368 -17z"/>
<path d="M3737 5062 c-48 -48 -87 -93 -87 -100 0 -9 93 -12 413 -12 l414 0 76
92 c42 50 74 95 71 100 -3 4 -184 8 -402 8 l-397 0 -88 -88z"/>
<path d="M4668 5113 c-58 -62 -118 -144 -112 -154 3 -5 188 -9 434 -9 l430 0
26 52 c15 29 37 70 50 90 13 21 24 42 24 48 0 7 -137 10 -408 10 l-408 0 -36
-37z"/>
<path d="M5574 5143 c-6 -4 -22 -28 -34 -53 -13 -24 -34 -62 -48 -83 -22 -32
-23 -40 -11 -48 14 -10 497 -5 507 5 2 3 0 11 -5 18 -6 7 -23 46 -38 86 -16
39 -29 72 -29 73 -9 5 -334 8 -342 2z"/>
<path d="M9459 5143 l-55 -4 -37 -80 c-20 -44 -37 -84 -37 -88 0 -5 17 -11 38
-15 56 -9 702 -7 702 2 0 15 -90 176 -103 184 -12 7 -393 8 -508 1z"/>
<path d="M10020 5138 c0 -7 24 -51 53 -98 l53 -85 432 -3 c295 -1 432 1 432 8
0 11 -125 168 -145 182 -5 4 -193 8 -417 8 -320 0 -408 -3 -408 -12z"/>
<path d="M10910 5145 c0 -7 96 -133 128 -167 l26 -28 411 0 c227 0 415 3 419
7 3 4 -35 49 -86 100 l-93 93 -402 0 c-222 0 -403 -2 -403 -5z"/>
<path d="M3603 4908 c-39 -11 -250 -215 -236 -229 11 -11 61 -12 543 -3 l355
6 42 46 c54 60 128 159 128 173 0 13 -788 19 -832 7z"/>
<path d="M4522 4910 c-11 -3 -44 -34 -72 -70 -28 -36 -64 -82 -80 -102 -17
-20 -30 -41 -30 -47 0 -12 0 -12 539 -11 205 0 377 3 381 5 5 3 26 35 47 71
57 100 72 128 73 142 0 9 -85 12 -392 13 -216 0 -405 1 -419 3 -14 1 -35 -1
-47 -4z"/>
<path d="M10528 4912 c-314 -2 -368 -4 -368 -17 0 -16 97 -190 114 -204 7 -6
140 -10 311 -11 497 -3 615 -1 615 10 0 8 -121 160 -165 208 -15 17 -41 18
-507 14z"/>
<path d="M5431 4888 c-57 -90 -110 -192 -105 -200 7 -10 747 -8 764 2 6 4 0
31 -15 71 -14 35 -29 80 -33 99 -6 28 -14 36 -37 41 -17 4 -149 7 -295 8 -265
1 -265 1 -279 -21z"/>
<path d="M9291 4872 c-23 -45 -36 -150 -22 -172 9 -13 75 -16 472 -19 253 -2
464 1 469 5 7 8 -14 47 -110 207 -9 16 -39 17 -400 17 l-390 0 -19 -38z"/>
<path d="M9188 4633 c-9 -10 -23 -33 -32 -51 -11 -22 -30 -38 -59 -49 -23 -9
-67 -30 -97 -46 -30 -17 -73 -39 -95 -50 -22 -11 -53 -29 -69 -40 l-30 -21 29
-8 c50 -13 497 -12 505 2 6 10 -65 238 -84 268 -11 18 -51 14 -68 -5z"/>
<path d="M12291 4605 c24 -25 48 -45 53 -45 6 0 -10 20 -34 45 -24 25 -48 45
-53 45 -5 0 10 -20 34 -45z"/>
<path d="M3022 4401 c-65 -61 -79 -83 -37 -55 13 8 30 12 36 8 9 -5 10 -2 5
11 -5 14 4 28 35 57 22 21 37 38 32 38 -5 0 -37 -26 -71 -59z"/>
<path d="M6192 4325 c-14 -11 -35 -61 -67 -160 -26 -80 -45 -150 -43 -156 3
-8 50 -10 153 -9 83 1 323 3 535 3 355 2 385 3 388 19 3 16 -20 17 -365 12
-238 -4 -377 -3 -393 4 -21 8 -37 36 -80 137 -61 142 -90 176 -128 150z"/>
<path d="M8885 4320 c-201 -5 -191 -3 -315 -65 -109 -55 -186 -98 -202 -112
-12 -11 -18 -31 -18 -62 0 -56 6 -66 44 -75 41 -10 776 -20 896 -12 30 3 81 5
113 5 36 1 57 5 57 13 0 23 -94 303 -104 311 -11 7 -107 7 -471 -3z"/>
<path d="M8270 4095 c-6 -8 -36 -23 -65 -34 -49 -19 -85 -20 -514 -24 -254 -2
-465 -7 -468 -11 -22 -21 66 -25 547 -22 289 2 528 4 533 5 15 2 3 101 -13
101 -4 0 -13 -7 -20 -15z"/>
<path d="M2995 6330 c-3 -5 -1 -10 4 -10 6 0 11 5 11 10 0 6 -2 10 -4 10 -3 0
-8 -4 -11 -10z"/>
<path d="M12675 6870 c-18 -8 -17 -9 8 -9 16 -1 26 3 22 9 -3 6 -7 10 -8 9 -1
0 -11 -4 -22 -9z"/>
<path d="M13025 6870 c-16 -7 -17 -9 -3 -9 9 -1 20 4 23 9 7 11 7 11 -20 0z"/>
<path d="M13090 6870 c-12 -8 -9 -10 13 -10 16 0 26 4 22 10 -8 12 -16 12 -35
0z"/>
<path d="M13150 6870 c-9 -6 -10 -10 -3 -10 6 0 15 5 18 10 8 12 4 12 -15 0z"/>
<path d="M13426 6871 c-3 -5 3 -11 14 -14 24 -6 36 8 14 17 -20 8 -22 8 -28
-3z"/>
</g>
</svg>
